<svg xmlns="http://www.w3.org/2000/svg" width="3292" height="822.667" xmlns:v="https://vecta.io/nano"><style><![CDATA[.B{opacity:.8}.C{opacity:1}.D{stroke-linecap:round}.E{fill:#2e353a}.F{fill:#fff}.G{fill:none}.H{stroke-linejoin:round}.I{stroke:#2e353a}.J{stroke-width:2.089}.K{fill:#59ae00}.L{font-family:Ubuntu}.M{writing-mode:lr-tb}.N{stroke:#59ae00}.O{stroke-miterlimit:10}.P{fill:#29602a}.Q{font-size:113.18px}.R{stroke-width:3.043}.S{font-style:italic}.T{stroke-width:1.044}.U{stroke-width:1.467}]]></style><defs><linearGradient x1="0" y1="0" x2="1" y2="0" gradientTransform="matrix(-799.76544,-799.76544,-799.76544,799.76544,1727.3041,1131.3755)" spreadMethod="pad" id="A" href="#FI"><stop offset="0" stop-color="#fff"/></linearGradient><clipPath id="B"><path d="M-23 1461.91h2497V-202.762H-23z"/></clipPath><clipPath id="C"><path d="M0 450h1289V0H0z" transform="matrix(1.333333 0 0 -1.333333 3312 600)"/></clipPath><linearGradient x1="0" y1="0" x2="1" y2="0" gradientTransform="matrix(-348.75281,-348.75281,-348.75281,348.75281,829.40082,635.86627)" spreadMethod="pad" id="D" href="#FI"><stop offset="0" stop-color="#fff"/></linearGradient><clipPath id="E"><path d="M-23 1461.91h1692.21V-202.762H-23z"/></clipPath><clipPath id="F"><path d="M0 450h1289V0H0z" transform="matrix(1.333333 0 0 -1.333333 3312 600)"/></clipPath><linearGradient x1="1727.304" y1="127.767" x2="927.539" y2="927.533" spreadMethod="pad" id="G" href="#FI"><stop offset="0" stop-color="#fff"/></linearGradient><clipPath id="H"><path d="M-23 1461.91h2497V-202.762H-23z"/></clipPath><clipPath id="I"><path d="M0 450h1289V0H0z" transform="matrix(1.333333 0 0 -1.333333 3312 600)"/></clipPath><linearGradient x1="829.401" y1="623.276" x2="480.648" y2="972.029" spreadMethod="pad" id="J" href="#FI"><stop offset="0" stop-color="#fff"/></linearGradient><clipPath id="K"><path d="M-23 1461.91h1692.21V-202.762H-23z"/></clipPath><clipPath id="L"><path d="M0 450h1289V0H0z" transform="matrix(1.333333 0 0 -1.333333 3312 600)"/></clipPath><clipPath id="M"><path d="M0 450h1289V0H0z" transform="translate(-1701.03 81.669)"/></clipPath><clipPath id="N"><path d="M0 617h2469V0H0z"/></clipPath><clipPath id="O"><path d="M0 450h1289V0H0z"/></clipPath><linearGradient x1="0" y1="0" x2="1" y2="0" gradientTransform="matrix(-689.25909,-689.25909,-689.25909,689.25909,631.93127,-177.83095)" spreadMethod="pad" id="P" href="#FI"><stop offset="0" stop-color="#fff"/></linearGradient><clipPath id="Q"><path d="M-23 479.437h1312.2V-832.762H-23z"/></clipPath><clipPath id="R"><path d="M0 617h2469V0H0z" transform="matrix(1.333333 0 0 -1.333333 10101.333 822.66667)"/></clipPath><linearGradient x1="0" y1="0" x2="1" y2="0" gradientTransform="matrix(-403.94971,-403.94971,-403.94971,403.94971,2507.3152,853.88666)" spreadMethod="pad" id="S" href="#FI"><stop offset="0" stop-color="#e2e5e6 icc-color(srgb iec61966-2.1, 0.88626099, 0.89802551, 0.90194702)"/><stop offset=".494" stop-color="#f6f6f6 icc-color(srgb iec61966-2.1, 0.96469116, 0.96469116, 0.96469116)"/><stop offset="1" stop-color="#e2e5e6 icc-color(srgb iec61966-2.1, 0.88626099, 0.89802551, 0.90194702)"/></linearGradient><linearGradient x1="0" y1="0" x2="1" y2="0" gradientTransform="matrix(-353.50137,-353.50137,-353.50137,353.50137,2292.0708,638.64264)" spreadMethod="pad" id="T" href="#FI"><stop offset="0" stop-color="#fff"/></linearGradient><clipPath id="U"><path d="M1404.35 854.572H2508v-1103.65H1404.35z"/></clipPath><clipPath id="V"><path d="M0 617h2469V0H0z" transform="matrix(1.333333 0 0 -1.333333 10101.333 822.66667)"/></clipPath><linearGradient x1="0" y1="0" x2="1" y2="0" gradientTransform="matrix(-198.87633,-198.87633,-198.87633,198.87633,2044.7312,391.3028)" spreadMethod="pad" id="W" href="#FI"><stop offset="0" stop-color="#fff"/></linearGradient><clipPath id="X"><path d="M1203.52 854.572H2508V-449.909H1203.52z"/></clipPath><clipPath id="Y"><path d="M0 617h2469V0H0z" transform="matrix(1.333333 0 0 -1.333333 10101.333 822.66667)"/></clipPath><linearGradient x1="0" y1="0" x2="1" y2="0" gradientTransform="matrix(-810.65533,-810.65533,-810.65533,810.65533,1751.1368,519.54156)" spreadMethod="pad" id="Z" href="#FI"><stop offset="0" stop-color="#fff"/></linearGradient><clipPath id="a"><path d="M-23 854.572h2531V-832.762H-23z"/></clipPath><clipPath id="b"><path d="M0 617h2469V0H0z" transform="matrix(1.333333 0 0 -1.333333 10101.333 822.66667)"/></clipPath><linearGradient x1="0" y1="0" x2="1" y2="0" gradientTransform="matrix(304.08514,304.08514,304.08514,-304.08514,1159.5234,-85.307648)" spreadMethod="pad" id="c" href="#FI"><stop offset="0" stop-color="#fff"/></linearGradient><clipPath id="d"><path d="M210.458 854.572H2301.01V-832.762H210.458z"/></clipPath><clipPath id="e"><path d="M0 617h2469V0H0z" transform="matrix(1.333333 0 0 -1.333333 10101.333 822.66667)"/></clipPath><linearGradient x1="0" y1="0" x2="1" y2="0" gradientTransform="matrix(-192.61278,-192.61278,-192.61278,192.61278,1494.1094,100.66382)" spreadMethod="pad" id="f" href="#FI"><stop offset="0" stop-color="#fff"/></linearGradient><clipPath id="g"><path d="M359.073 854.572H2449.63V-832.762H359.073z"/></clipPath><clipPath id="h"><path d="M0 617h2469V0H0z" transform="matrix(1.333333 0 0 -1.333333 10101.333 822.66667)"/></clipPath><linearGradient x1="0" y1="0" x2="1" y2="0" gradientTransform="matrix(-353.50156,-353.50156,-353.50156,353.50156,841.00745,17.285355)" spreadMethod="pad" id="i" href="#FI"><stop offset="0" stop-color="#fff"/></linearGradient><clipPath id="j"><path d="M-23 854.572h1715.25V-832.762H-23z"/></clipPath><clipPath id="k"><path d="M0 617h2469V0H0z" transform="matrix(1.333333 0 0 -1.333333 10101.333 822.66667)"/></clipPath><linearGradient x1="631.931" y1="199.64" x2="-57.328" y2="888.9" spreadMethod="pad" id="l" href="#FI"><stop offset="0" stop-color="#fff"/></linearGradient><clipPath id="m"><path d="M-23 854.572h1312.2v-1312.2H-23z"/></clipPath><clipPath id="n"><path d="M0 617h2469V0H0z" transform="matrix(1.333333 0 0 -1.333333 10101.333 822.66667)"/></clipPath><linearGradient x1="210.755" y1="622.242" x2="-34.502" y2="867.499" spreadMethod="pad" id="o" href="#FI"><stop offset="0" stop-color="#e2e5e6 icc-color(srgb iec61966-2.1, 0.88626099, 0.89802551, 0.90194702)"/><stop offset=".494" stop-color="#f6f6f6 icc-color(srgb iec61966-2.1, 0.96469116, 0.96469116, 0.96469116)"/><stop offset="1" stop-color="#e2e5e6 icc-color(srgb iec61966-2.1, 0.88626099, 0.89802551, 0.90194702)"/></linearGradient><linearGradient x1="2292.071" y1="-616.833" x2="1938.569" y2="-263.332" spreadMethod="pad" id="p" href="#FI"><stop offset="0" stop-color="#fff"/></linearGradient><clipPath id="q"><path d="M1404.35 270.887H2508V-832.762H1404.35z"/></clipPath><clipPath id="r"><path d="M0 617h2469V0H0z" transform="matrix(1.333333 0 0 -1.333333 10101.333 822.66667)"/></clipPath><linearGradient x1="2019.631" y1="-344.393" x2="1809.979" y2="-134.741" spreadMethod="pad" id="s" href="#FI"><stop offset="0" stop-color="#fff"/></linearGradient><clipPath id="t"><path d="M1132.84 542.396H2508V-832.762H1132.84z"/></clipPath><clipPath id="u"><path d="M0 617h2469V0H0z" transform="matrix(1.333333 0 0 -1.333333 10101.333 822.66667)"/></clipPath><linearGradient x1="1751.137" y1="-497.732" x2="940.481" y2="312.923" spreadMethod="pad" id="v" href="#FI"><stop offset="0" stop-color="#fff"/></linearGradient><clipPath id="w"><path d="M-23 854.572h2531V-832.762H-23z"/></clipPath><clipPath id="x"><path d="M0 617h2469V0H0z" transform="matrix(1.333333 0 0 -1.333333 10101.333 822.66667)"/></clipPath><linearGradient x1="1159.523" y1="107.117" x2="1463.609" y2="-196.968" spreadMethod="pad" id="y" href="#FI"><stop offset="0" stop-color="#fff"/></linearGradient><clipPath id="z"><path d="M210.458 854.572H2301.01V-832.762H210.458z"/></clipPath><clipPath id="AA"><path d="M0 617h2469V0H0z" transform="matrix(1.333333 0 0 -1.333333 10101.333 822.66667)"/></clipPath><linearGradient x1="1378.959" y1="-78.854" x2="1186.346" y2="113.758" spreadMethod="pad" id="AB" href="#FI"><stop offset="0" stop-color="#fff"/></linearGradient><clipPath id="AC"><path d="M243.922 854.572H2334.48V-832.762H243.922z"/></clipPath><clipPath id="AD"><path d="M0 617h2469V0H0z" transform="matrix(1.333333 0 0 -1.333333 10101.333 822.66667)"/></clipPath><linearGradient x1="841.007" y1="4.524" x2="487.506" y2="358.026" spreadMethod="pad" id="AE" href="#FI"><stop offset="0" stop-color="#fff"/></linearGradient><clipPath id="AF"><path d="M-23 854.572h1715.25V-832.762H-23z"/></clipPath><clipPath id="AG"><path d="M0 617h2469V0H0z" transform="matrix(1.333333 0 0 -1.333333 10101.333 822.66667)"/></clipPath><linearGradient x1="296.267" y1="540.408" x2="-37.048" y2="873.724" spreadMethod="pad" id="AH" href="#FI"><stop offset="0" stop-color="#fff"/></linearGradient><clipPath id="AI"><path d="M-23 854.572h634.561V230.219H-23z"/></clipPath><clipPath id="AJ"><path d="M0 617h2469V0H0z" transform="matrix(1.333333 0 0 -1.333333 10101.333 822.66667)"/></clipPath><clipPath id="AK"><path d="M0 617h2469V0H0z" transform="translate(-684.998 35.669)"/></clipPath><clipPath id="AL"><path d="M0 617h2469V0H0z" transform="translate(-443.232 -392.958)"/></clipPath><clipPath id="AM"><path d="M0 617h2469V0H0z" transform="translate(-587.296 -429.278)"/></clipPath><clipPath id="AN"><path d="M0 617h2469V0H0z" transform="translate(-536.412 -416.382)"/></clipPath><clipPath id="AO"><path d="M0 617h2469V0H0z" transform="translate(-516.151 -281.731)"/></clipPath><clipPath id="AP"><path d="M0 617h2469V0H0z" transform="translate(-504.487 -274.182)"/></clipPath><clipPath id="AQ"><path d="M0 617h2469V0H0z" transform="translate(-548.211 -298.138)"/></clipPath><clipPath id="AR"><path d="M0 617h2469V0H0z" transform="translate(-1135.821 30.141)"/></clipPath><clipPath id="AS"><path d="M0 617h2469V0H0z" transform="translate(-1296.54 -620.147)"/></clipPath><clipPath id="AT"><path d="M0 617h2469V0H0z" transform="translate(-1001.081 -491.193)"/></clipPath><clipPath id="AU"><path d="M0 617h2469V0H0z" transform="translate(-1001.098 -491.177)"/></clipPath><clipPath id="AV"><path d="M0 617h2469V0H0z" transform="translate(-1237.443 -528.929)"/></clipPath><clipPath id="AW"><path d="M0 617h2469V0H0z" transform="translate(-1281.375 -438.833)"/></clipPath><clipPath id="AX"><path d="M0 617h2469V0H0z" transform="translate(-1244.169 -514.881)"/></clipPath><clipPath id="AY"><path d="M0 617h2469V0H0z" transform="translate(-1048.479 -445.767)"/></clipPath><clipPath id="AZ"><path d="M0 617h2469V0H0z" transform="translate(-1059.328 -415.369)"/></clipPath><clipPath id="Aa"><path d="M0 617h2469V0H0z" transform="translate(-1068.333 -390.069)"/></clipPath><clipPath id="Ab"><path d="M0 617h2469V0H0z" transform="translate(-1073.751 -374.867)"/></clipPath><clipPath id="Ac"><path d="M0 617h2469V0H0z" transform="translate(-1101.281 -297.638)"/></clipPath><clipPath id="Ad"><path d="M0 617h2469V0H0z" transform="translate(-1106.235 -283.698)"/></clipPath><clipPath id="Ae"><path d="M0 617h2469V0H0z" transform="translate(-1111.209 -269.778)"/></clipPath><clipPath id="Af"><path d="M0 617h2469V0H0z" transform="translate(-1250.673 -350.901)"/></clipPath><clipPath id="Ag"><path d="M0 617h2469V0H0z" transform="translate(-1255.647 -336.961)"/></clipPath><clipPath id="Ah"><path d="M0 617h2469V0H0z" transform="translate(-1260.603 -323.034)"/></clipPath><clipPath id="Ai"><path d="M0 617h2469V0H0z" transform="translate(-1094.211 -309.343)"/></clipPath><clipPath id="Aj"><path d="M0 617h2469V0H0z" transform="translate(-1127.007 -225.473)"/></clipPath><clipPath id="Ak"><path d="M0 617h2469V0H0z" transform="translate(-1131.962 -211.526)"/></clipPath><clipPath id="Al"><path d="M0 617h2469V0H0z" transform="translate(-1136.937 -197.606)"/></clipPath><clipPath id="Am"><path d="M0 617h2469V0H0z" transform="translate(-1276.401 -278.729)"/></clipPath><clipPath id="An"><path d="M0 617h2469V0H0z" transform="translate(-1281.375 -264.789)"/></clipPath><clipPath id="Ao"><path d="M0 617h2469V0H0z" transform="translate(-1286.33 -250.862)"/></clipPath><clipPath id="Ap"><path d="M0 617h2469V0H0z" transform="translate(-1119.925 -237.172)"/></clipPath><clipPath id="Aq"><path d="M0 617h2469V0H0z" transform="translate(-1145.577 -169.318)"/></clipPath><clipPath id="Ar"><path d="M0 617h2469V0H0z" transform="translate(-967.527 -445.614)"/></clipPath><clipPath id="As"><path d="M0 617h2469V0H0z" transform="translate(-967.543 -445.607)"/></clipPath><clipPath id="At"><path d="M0 617h2469V0H0z" transform="translate(-1188.044 -484.154)"/></clipPath><clipPath id="Au"><path d="M0 617h2469V0H0z" transform="translate(-1250.543 -410.904)"/></clipPath><clipPath id="Av"><path d="M0 617h2469V0H0z" transform="translate(-1209.291 -485.159)"/></clipPath><clipPath id="Aw"><path d="M0 617h2469V0H0z" transform="translate(-1017.666 -403.23)"/></clipPath><clipPath id="Ax"><path d="M0 617h2469V0H0z" transform="translate(-1030.387 -373.585)"/></clipPath><clipPath id="Ay"><path d="M0 617h2469V0H0z" transform="translate(-1040.985 -348.89)"/></clipPath><clipPath id="Az"><path d="M0 617h2469V0H0z" transform="translate(-1047.34 -334.065)"/></clipPath><clipPath id="BA"><path d="M0 617h2469V0H0z" transform="translate(-1079.662 -258.711)"/></clipPath><clipPath id="BB"><path d="M0 617h2469V0H0z" transform="translate(-1085.49 -245.126)"/></clipPath><clipPath id="BC"><path d="M0 617h2469V0H0z" transform="translate(-1091.298 -231.511)"/></clipPath><clipPath id="BD"><path d="M0 617h2469V0H0z" transform="translate(-1225.413 -321.189)"/></clipPath><clipPath id="BE"><path d="M0 617h2469V0H0z" transform="translate(-1231.232 -307.623)"/></clipPath><clipPath id="BF"><path d="M0 617h2469V0H0z" transform="translate(-1237.08 -294.016)"/></clipPath><clipPath id="BG"><path d="M0 617h2469V0H0z" transform="translate(-1071.861 -269.947)"/></clipPath><clipPath id="BH"><path d="M0 617h2469V0H0z" transform="translate(-1109.845 -188.282)"/></clipPath><clipPath id="BI"><path d="M0 617h2469V0H0z" transform="translate(-1115.685 -174.716)"/></clipPath><clipPath id="BJ"><path d="M0 617h2469V0H0z" transform="translate(-1121.513 -161.11)"/></clipPath><clipPath id="BK"><path d="M0 617h2469V0H0z" transform="translate(-1255.629 -250.787)"/></clipPath><clipPath id="BL"><path d="M0 617h2469V0H0z" transform="translate(-1261.448 -237.221)"/></clipPath><clipPath id="BM"><path d="M0 617h2469V0H0z" transform="translate(-1267.256 -223.607)"/></clipPath><clipPath id="BN"><path d="M0 617h2469V0H0z" transform="translate(-1102.044 -199.531)"/></clipPath><clipPath id="BO"><path d="M0 617h2469V0H0z" transform="translate(-1131.902 -133.408)"/></clipPath><clipPath id="BP"><path d="M0 617h2469V0H0z" transform="translate(-924.134 -398.084)"/></clipPath><clipPath id="BQ"><path d="M0 617h2469V0H0z" transform="translate(-924.146 -398.066)"/></clipPath><clipPath id="BR"><path d="M0 617h2469V0H0z" transform="translate(-1173.366 -504.05)"/></clipPath><clipPath id="BS"><path d="M0 617h2469V0H0z" transform="translate(-1208.932 -412.158)"/></clipPath><clipPath id="BT"><path d="M0 617h2469V0H0z" transform="translate(-1159.438 -482.215)"/></clipPath><clipPath id="BU"><path d="M0 617h2469V0H0z" transform="translate(-980.732 -364.836)"/></clipPath><clipPath id="BV"><path d="M0 617h2469V0H0z" transform="translate(-998.29 -337.779)"/></clipPath><clipPath id="BW"><path d="M0 617h2469V0H0z" transform="translate(-1011.027 -312.982)"/></clipPath><clipPath id="BX"><path d="M0 617h2469V0H0z" transform="translate(-1021.722 -301.718)"/></clipPath><clipPath id="BY"><path d="M0 617h2469V0H0z" transform="translate(-1066.377 -232.95)"/></clipPath><clipPath id="BZ"><path d="M0 617h2469V0H0z" transform="translate(-1074.427 -220.53)"/></clipPath><clipPath id="Ba"><path d="M0 617h2469V0H0z" transform="translate(-1082.476 -208.109)"/></clipPath><clipPath id="Bb"><path d="M0 617h2469V0H0z" transform="translate(-1199.413 -319.317)"/></clipPath><clipPath id="Bc"><path d="M0 617h2469V0H0z" transform="translate(-1207.48 -306.908)"/></clipPath><clipPath id="Bd"><path d="M0 617h2469V0H0z" transform="translate(-1215.53 -294.488)"/></clipPath><clipPath id="Be"><path d="M0 617h2469V0H0z" transform="translate(-1056.82 -242.791)"/></clipPath><clipPath id="Bf"><path d="M0 617h2469V0H0z" transform="translate(-1108.101 -168.664)"/></clipPath><clipPath id="Bg"><path d="M0 617h2469V0H0z" transform="translate(-1116.139 -156.261)"/></clipPath><clipPath id="Bh"><path d="M0 617h2469V0H0z" transform="translate(-1124.206 -143.873)"/></clipPath><clipPath id="Bi"><path d="M0 617h2469V0H0z" transform="translate(-1241.137 -255.031)"/></clipPath><clipPath id="Bj"><path d="M0 617h2469V0H0z" transform="translate(-1249.192 -242.64)"/></clipPath><clipPath id="Bk"><path d="M0 617h2469V0H0z" transform="translate(-1257.221 -230.22)"/></clipPath><clipPath id="Bl"><path d="M0 617h2469V0H0z" transform="translate(-1098.535 -178.538)"/></clipPath><clipPath id="Bm"><path d="M0 617h2469V0H0z" transform="translate(-1139.184 -118.322)"/></clipPath><clipPath id="Bn"><path d="M0 617h2469V0H0z" transform="translate(-887.037 -424.043)"/></clipPath><clipPath id="Bo"><path d="M737.431 540.101h399.459V-31.185H737.431z" transform="translate(-887.037 -424.043)"/></clipPath><clipPath id="Bp"><path d="M0 617h2469V0H0z" transform="matrix(1.333333 0 0 -1.333333 10101.333 822.66667)"/></clipPath><clipPath id="Bq"><path d="M0 617h2469V0H0z" transform="translate(-1408.838 -53.268)"/></clipPath><clipPath id="Br"><path d="M0 617h2469V0H0z" transform="translate(-1494.795 -271.409)"/></clipPath><clipPath id="Bs"><path d="M0 617h2469V0H0z" transform="translate(-1522.64 -166.13)"/></clipPath><clipPath id="Bt"><path d="M0 617h2469V0H0z" transform="translate(-1485.583 -460.348)"/></clipPath><clipPath id="Bu"><path d="M0 617h2469V0H0z" transform="translate(-1421.747 -532.185)"/></clipPath><clipPath id="Bv"><path d="M0 617h2469V0H0z" transform="translate(-1421.977 -526.064)"/></clipPath><clipPath id="Bw"><path d="M0 617h2469V0H0z" transform="translate(-1460.266 -483.012)"/></clipPath><clipPath id="Bx"><path d="M0 617h2469V0H0z" transform="translate(-1495.568 -573.523)"/></clipPath><clipPath id="By"><path d="M0 617h2469V0H0z" transform="translate(-1496.07 -549.522)"/></clipPath><clipPath id="Bz"><path d="M0 617h2469V0H0z" transform="translate(-1495.652 -555.622)"/></clipPath><clipPath id="CA"><path d="M0 617h2469V0H0z" transform="translate(-1516.519 -512.988)"/></clipPath><clipPath id="CB"><path d="M0 617h2469V0H0z" transform="translate(-1460.475 -262.949)"/></clipPath><clipPath id="CC"><path d="M0 617h2469V0H0z" transform="translate(-1480.842 -102.356)"/></clipPath><clipPath id="CD"><path d="M0 617h2469V0H0z" transform="translate(-1516.519 -512.988)"/></clipPath><clipPath id="CE"><path d="M0 617h2469V0H0z" transform="translate(-1518.713 -286.574)"/></clipPath><clipPath id="CF"><path d="M0 617h2469V0H0z" transform="translate(-1514.765 -315.108)"/></clipPath><clipPath id="CG"><path d="M0 617h2469V0H0z" transform="translate(-1501.876 -283.692)"/></clipPath><clipPath id="CH"><path d="M0 617h2469V0H0z" transform="translate(-1607.86 -478.145)"/></clipPath><clipPath id="CI"><path d="M0 617h2469V0H0z" transform="translate(-1500.101 -585.096)"/></clipPath><clipPath id="CJ"><path d="M0 617h2469V0H0z" transform="translate(-1494.795 -592.553)"/></clipPath><clipPath id="CK"><path d="M0 617h2469V0H0z" transform="translate(-1572.23 -376.793)"/></clipPath><clipPath id="CL"><path d="M0 617h2469V0H0z" transform="translate(-1555.56 -476.453)"/></clipPath><clipPath id="CM"><path d="M0 617h2469V0H0z" transform="translate(-1523.851 -562.557)"/></clipPath><clipPath id="CN"><path d="M0 617h2469V0H0z" transform="translate(-1554.224 -581.733)"/></clipPath><clipPath id="CO"><path d="M0 617h2469V0H0z" transform="translate(-1477.854 -401.316)"/></clipPath><clipPath id="CP"><path d="M0 617h2469V0H0z" transform="translate(-1510.879 -468.704)"/></clipPath><linearGradient x1="0" y1="0" x2="1" y2="0" gradientTransform="matrix(-689.25909,-689.25909,-689.25909,689.25909,631.93127,362.16904)" spreadMethod="pad" id="CQ" href="#FI"><stop offset="0" stop-color="#fff"/></linearGradient><clipPath id="CR"><path d="M-23 1019.44h1312.2V-292.762H-23z"/></clipPath><clipPath id="CS"><path d="M0 450h1289V0H0z" transform="matrix(1.333333 0 0 -1.333333 13413.333 600)"/></clipPath><linearGradient x1="0" y1="0" x2="1" y2="0" gradientTransform="matrix(-810.65533,-810.65533,-810.65533,810.65533,1751.1368,1059.5415)" spreadMethod="pad" id="CT" href="#FI"><stop offset="0" stop-color="#fff"/></linearGradient><clipPath id="CU"><path d="M-23 1394.57h2531V-292.762H-23z"/></clipPath><clipPath id="CV"><path d="M0 450h1289V0H0z" transform="matrix(1.333333 0 0 -1.333333 13413.333 600)"/></clipPath><linearGradient x1="0" y1="0" x2="1" y2="0" gradientTransform="matrix(304.08514,304.08514,304.08514,-304.08514,1159.5234,454.69235)" spreadMethod="pad" id="CW" href="#FI"><stop offset="0" stop-color="#fff"/></linearGradient><clipPath id="CX"><path d="M210.458 1394.57H2301.01V-292.762H210.458z"/></clipPath><clipPath id="CY"><path d="M0 450h1289V0H0z" transform="matrix(1.333333 0 0 -1.333333 13413.333 600)"/></clipPath><linearGradient x1="0" y1="0" x2="1" y2="0" gradientTransform="matrix(-192.61278,-192.61278,-192.61278,192.61278,1494.1094,640.66382)" spreadMethod="pad" id="CZ" href="#FI"><stop offset="0" stop-color="#fff"/></linearGradient><clipPath id="Ca"><path d="M359.073 1394.57H2449.63V-292.762H359.073z"/></clipPath><clipPath id="Cb"><path d="M0 450h1289V0H0z" transform="matrix(1.333333 0 0 -1.333333 13413.333 600)"/></clipPath><linearGradient x1="0" y1="0" x2="1" y2="0" gradientTransform="matrix(-353.50156,-353.50156,-353.50156,353.50156,841.00745,557.28534)" spreadMethod="pad" id="Cc" href="#FI"><stop offset="0" stop-color="#fff"/></linearGradient><clipPath id="Cd"><path d="M-23 1394.57h1715.25V-292.762H-23z"/></clipPath><clipPath id="Ce"><path d="M0 450h1289V0H0z" transform="matrix(1.333333 0 0 -1.333333 13413.333 600)"/></clipPath><linearGradient x1="0" y1="0" x2="1" y2="0" gradientTransform="matrix(-333.31577,-333.31577,-333.31577,333.31577,296.26733,21.401068)" spreadMethod="pad" id="Cf" href="#FI"><stop offset="0" stop-color="#fff"/></linearGradient><clipPath id="Cg"><path d="M-23 331.591h634.561v-624.353H-23z"/></clipPath><clipPath id="Ch"><path d="M0 450h1289V0H0z" transform="matrix(1.333333 0 0 -1.333333 13413.333 600)"/></clipPath><linearGradient x1="631.931" y1="739.64" x2="-57.328" y2="1428.9" spreadMethod="pad" id="Ci" href="#FI"><stop offset="0" stop-color="#fff"/></linearGradient><clipPath id="Cj"><path d="M-23 1394.57h1312.2V82.372H-23z"/></clipPath><clipPath id="Ck"><path d="M0 450h1289V0H0z" transform="matrix(1.333333 0 0 -1.333333 13413.333 600)"/></clipPath><linearGradient x1="2019.631" y1="195.607" x2="1809.979" y2="405.259" spreadMethod="pad" id="Cl" href="#FI"><stop offset="0" stop-color="#fff"/></linearGradient><clipPath id="Cm"><path d="M1132.84 1082.4H2508V-292.762H1132.84z"/></clipPath><clipPath id="Cn"><path d="M0 450h1289V0H0z" transform="matrix(1.333333 0 0 -1.333333 13413.333 600)"/></clipPath><linearGradient x1="1751.137" y1="42.268" x2="940.481" y2="852.923" spreadMethod="pad" id="Co" href="#FI"><stop offset="0" stop-color="#fff"/></linearGradient><clipPath id="Cp"><path d="M-23 1394.57h2531V-292.762H-23z"/></clipPath><clipPath id="Cq"><path d="M0 450h1289V0H0z" transform="matrix(1.333333 0 0 -1.333333 13413.333 600)"/></clipPath><linearGradient x1="1159.523" y1="647.117" x2="1463.609" y2="343.032" spreadMethod="pad" id="Cr" href="#FI"><stop offset="0" stop-color="#fff"/></linearGradient><clipPath id="Cs"><path d="M210.458 1394.57H2301.01V-292.762H210.458z"/></clipPath><clipPath id="Ct"><path d="M0 450h1289V0H0z" transform="matrix(1.333333 0 0 -1.333333 13413.333 600)"/></clipPath><linearGradient x1="1378.959" y1="461.146" x2="1186.346" y2="653.758" spreadMethod="pad" id="Cu" href="#FI"><stop offset="0" stop-color="#fff"/></linearGradient><clipPath id="Cv"><path d="M243.922 1394.57H2334.48V-292.762H243.922z"/></clipPath><clipPath id="Cw"><path d="M0 450h1289V0H0z" transform="matrix(1.333333 0 0 -1.333333 13413.333 600)"/></clipPath><linearGradient x1="841.007" y1="544.524" x2="487.506" y2="898.026" spreadMethod="pad" id="Cx" href="#FI"><stop offset="0" stop-color="#fff"/></linearGradient><clipPath id="Cy"><path d="M-23 1394.57h1715.25V-292.762H-23z"/></clipPath><clipPath id="Cz"><path d="M0 450h1289V0H0z" transform="matrix(1.333333 0 0 -1.333333 13413.333 600)"/></clipPath><clipPath id="DA"><path d="M0 450h1289V0H0z" transform="translate(-561.733 -301.592)"/></clipPath><clipPath id="DB"><path d="M0 450h1289V0H0z" transform="translate(-241.649 7.273)"/></clipPath><clipPath id="DC"><path d="M0 450h1289V0H0z" transform="translate(-66.937 -311.683)"/></clipPath><clipPath id="DD"><path d="M-38.125 393.186h280.522V-8.006H-38.125z" transform="translate(-66.937 -311.683)"/></clipPath><clipPath id="DE"><path d="M0 450h1289V0H0z" transform="matrix(1.333333 0 0 -1.333333 13413.333 600)"/></clipPath><linearGradient x1="0" y1="0" x2="1" y2="0" gradientTransform="matrix(-810.65533,-810.65533,-810.65533,810.65533,1743.1368,519.54156)" spreadMethod="pad" id="DF" href="#FI"><stop offset="0" stop-color="#fff"/></linearGradient><clipPath id="DG"><path d="M-31 854.572h2531V-832.762H-31z"/></clipPath><clipPath id="DH"><path d="M0 617h2469V0H0z" transform="matrix(1.333333 0 0 -1.333333 15152 822.66667)"/></clipPath><linearGradient x1="1743.137" y1="-497.732" x2="932.481" y2="312.923" spreadMethod="pad" id="DI" href="#FI"><stop offset="0" stop-color="#fff"/></linearGradient><clipPath id="DJ"><path d="M-31 854.572h2531V-832.762H-31z"/></clipPath><clipPath id="DK"><path d="M0 617h2469V0H0z" transform="matrix(1.333333 0 0 -1.333333 15152 822.66667)"/></clipPath><linearGradient x1="0" y1="0" x2="1" y2="0" gradientTransform="matrix(-810.65533,-810.65533,-810.65533,810.65533,1743.1368,1059.5415)" spreadMethod="pad" id="DL" href="#FI"><stop offset="0" stop-color="#fff"/></linearGradient><clipPath id="DM"><path d="M-31 1394.57h2531V-292.762H-31z"/></clipPath><clipPath id="DN"><path d="M0 450h1289V0H0z" transform="matrix(1.333333 0 0 -1.333333 18464 600)"/></clipPath><linearGradient x1="0" y1="0" x2="1" y2="0" gradientTransform="matrix(304.08514,304.08514,304.08514,-304.08514,1151.5234,454.69235)" spreadMethod="pad" id="DO" href="#FI"><stop offset="0" stop-color="#fff"/></linearGradient><clipPath id="DP"><path d="M202.458 1394.57H2293.01V-292.762H202.458z"/></clipPath><clipPath id="DQ"><path d="M0 450h1289V0H0z" transform="matrix(1.333333 0 0 -1.333333 18464 600)"/></clipPath><linearGradient x1="0" y1="0" x2="1" y2="0" gradientTransform="matrix(-192.61278,-192.61278,-192.61278,192.61278,1486.1094,640.66382)" spreadMethod="pad" id="DR" href="#FI"><stop offset="0" stop-color="#fff"/></linearGradient><clipPath id="DS"><path d="M351.073 1394.57H2441.63V-292.762H351.073z"/></clipPath><clipPath id="DT"><path d="M0 450h1289V0H0z" transform="matrix(1.333333 0 0 -1.333333 18464 600)"/></clipPath><linearGradient x1="0" y1="0" x2="1" y2="0" gradientTransform="matrix(-353.50156,-353.50156,-353.50156,353.50156,833.00745,557.28534)" spreadMethod="pad" id="DU" href="#FI"><stop offset="0" stop-color="#fff"/></linearGradient><clipPath id="DV"><path d="M-31 1394.57h1715.25V-292.762H-31z"/></clipPath><clipPath id="DW"><path d="M0 450h1289V0H0z" transform="matrix(1.333333 0 0 -1.333333 18464 600)"/></clipPath><linearGradient x1="2011.631" y1="195.607" x2="1801.979" y2="405.259" spreadMethod="pad" id="DX" href="#FI"><stop offset="0" stop-color="#fff"/></linearGradient><clipPath id="DY"><path d="M1124.84 1082.4H2500V-292.762H1124.84z"/></clipPath><clipPath id="DZ"><path d="M0 450h1289V0H0z" transform="matrix(1.333333 0 0 -1.333333 18464 600)"/></clipPath><linearGradient x1="1743.137" y1="42.268" x2="932.481" y2="852.923" spreadMethod="pad" id="Da" href="#FI"><stop offset="0" stop-color="#fff"/></linearGradient><clipPath id="Db"><path d="M-31 1394.57h2531V-292.762H-31z"/></clipPath><clipPath id="Dc"><path d="M0 450h1289V0H0z" transform="matrix(1.333333 0 0 -1.333333 18464 600)"/></clipPath><linearGradient x1="1151.523" y1="647.117" x2="1455.609" y2="343.032" spreadMethod="pad" id="Dd" href="#FI"><stop offset="0" stop-color="#fff"/></linearGradient><clipPath id="De"><path d="M202.458 1394.57H2293.01V-292.762H202.458z"/></clipPath><clipPath id="Df"><path d="M0 450h1289V0H0z" transform="matrix(1.333333 0 0 -1.333333 18464 600)"/></clipPath><linearGradient x1="1370.959" y1="461.146" x2="1178.346" y2="653.758" spreadMethod="pad" id="Dg" href="#FI"><stop offset="0" stop-color="#fff"/></linearGradient><clipPath id="Dh"><path d="M235.922 1394.57H2326.48V-292.762H235.922z"/></clipPath><clipPath id="Di"><path d="M0 450h1289V0H0z" transform="matrix(1.333333 0 0 -1.333333 18464 600)"/></clipPath><linearGradient x1="833.007" y1="544.524" x2="479.506" y2="898.026" spreadMethod="pad" id="Dj" href="#FI"><stop offset="0" stop-color="#fff"/></linearGradient><clipPath id="Dk"><path d="M-31 1394.57h1715.25V-292.762H-31z"/></clipPath><clipPath id="Dl"><path d="M0 450h1289V0H0z" transform="matrix(1.333333 0 0 -1.333333 18464 600)"/></clipPath><clipPath id="Dm"><path d="M0 450h1289V0H0z" transform="translate(-322.802 1334.056)"/></clipPath><clipPath id="Dn"><path d="M0 500h500V0H0z" transform="translate(-1806.161 1167.535)"/></clipPath><linearGradient x1="0" y1="0" x2="1" y2="0" gradientTransform="matrix(-799.76544,-799.76544,-799.76544,799.76544,1102.8041,1287.8755)" spreadMethod="pad" id="Do" href="#FI"><stop offset="0" stop-color="#fff"/></linearGradient><clipPath id="Dp"><path d="M-647.5 1618.41h2497V-46.262h-2497z"/></clipPath><clipPath id="Dq"><path d="M0 1500h1800V0H0z" transform="matrix(1.333333 0 0 -1.333333 22262.667 2000)"/></clipPath><linearGradient x1="1636.471" y1="166.766" x2="1287.719" y2="515.519" spreadMethod="pad" id="Dr" href="#FI"><stop offset="0" stop-color="#fff"/></linearGradient><clipPath id="Ds"><path d="M760.676 1042.56H1849.5V-46.262H760.676z"/></clipPath><clipPath id="Dt"><path d="M0 1500h1800V0H0z" transform="matrix(1.333333 0 0 -1.333333 22262.667 2000)"/></clipPath><linearGradient x1="1367.691" y1="435.547" x2="1160.856" y2="642.382" spreadMethod="pad" id="Du" href="#FI"><stop offset="0" stop-color="#fff"/></linearGradient><clipPath id="Dv"><path d="M492.815 1310.42H1849.5V-46.262H492.815z"/></clipPath><clipPath id="Dw"><path d="M0 1500h1800V0H0z" transform="matrix(1.333333 0 0 -1.333333 22262.667 2000)"/></clipPath><linearGradient x1="1102.804" y1="284.267" x2="303.039" y2="1084.033" spreadMethod="pad" id="Dx" href="#FI"><stop offset="0" stop-color="#fff"/></linearGradient><clipPath id="Dy"><path d="M-647.5 1618.41h2497V-46.262h-2497z"/></clipPath><clipPath id="Dz"><path d="M0 1500h1800V0H0z" transform="matrix(1.333333 0 0 -1.333333 22262.667 2000)"/></clipPath><clipPath id="EA"><path d="M0 1500h1800V0H0z" transform="translate(-1868.347 86.021)"/></clipPath><clipPath id="EB"><path d="M0 1500h1800V0H0z"/></clipPath><linearGradient x1="0" y1="0" x2="1" y2="0" gradientTransform="matrix(-810.65533,-810.65533,-810.65533,810.65533,1332.6368,1247.0415)" spreadMethod="pad" id="EC" href="#FI"><stop offset="0" stop-color="#fff"/></linearGradient><clipPath id="ED"><path d="M-441.5 1582.07h2531V-105.262h-2531z"/></clipPath><clipPath id="EE"><path d="M0 1500h1800V0H0z" transform="matrix(1.333333 0 0 -1.333333 27102.667 2000)"/></clipPath><linearGradient x1="0" y1="0" x2="1" y2="0" gradientTransform="matrix(304.08514,304.08514,304.08514,-304.08514,741.0235,642.19238)" spreadMethod="pad" id="EF" href="#FI"><stop offset="0" stop-color="#fff"/></linearGradient><clipPath id="EG"><path d="M-208.042 1582.07H1882.51V-105.262H-208.042z"/></clipPath><clipPath id="EH"><path d="M0 1500h1800V0H0z" transform="matrix(1.333333 0 0 -1.333333 27102.667 2000)"/></clipPath><linearGradient x1="0" y1="0" x2="1" y2="0" gradientTransform="matrix(-192.61278,-192.61278,-192.61278,192.61278,1075.6094,828.16382)" spreadMethod="pad" id="EI" href="#FI"><stop offset="0" stop-color="#fff"/></linearGradient><clipPath id="EJ"><path d="M-59.427 1582.07H2031.13V-105.262H-59.427z"/></clipPath><clipPath id="EK"><path d="M0 1500h1800V0H0z" transform="matrix(1.333333 0 0 -1.333333 27102.667 2000)"/></clipPath><linearGradient x1="1873.571" y1="110.667" x2="1520.069" y2="464.168" spreadMethod="pad" id="EL" href="#FI"><stop offset="0" stop-color="#fff"/></linearGradient><clipPath id="EM"><path d="M985.85 998.387H2089.5V-105.262H985.85z"/></clipPath><clipPath id="EN"><path d="M0 1500h1800V0H0z" transform="matrix(1.333333 0 0 -1.333333 27102.667 2000)"/></clipPath><linearGradient x1="1601.131" y1="383.107" x2="1391.479" y2="592.759" spreadMethod="pad" id="EO" href="#FI"><stop offset="0" stop-color="#fff"/></linearGradient><clipPath id="EP"><path d="M714.342 1269.9H2089.5V-105.262H714.342z"/></clipPath><clipPath id="EQ"><path d="M0 1500h1800V0H0z" transform="matrix(1.333333 0 0 -1.333333 27102.667 2000)"/></clipPath><linearGradient x1="1332.637" y1="229.768" x2="521.981" y2="1040.423" spreadMethod="pad" id="ER" href="#FI"><stop offset="0" stop-color="#fff"/></linearGradient><clipPath id="ES"><path d="M-441.5 1582.07h2531V-105.262h-2531z"/></clipPath><clipPath id="ET"><path d="M0 1500h1800V0H0z" transform="matrix(1.333333 0 0 -1.333333 27102.667 2000)"/></clipPath><linearGradient x1="741.024" y1="834.617" x2="1045.109" y2="530.532" spreadMethod="pad" id="EU" href="#FI"><stop offset="0" stop-color="#fff"/></linearGradient><clipPath id="EV"><path d="M-208.042 1582.07H1882.51V-105.262H-208.042z"/></clipPath><clipPath id="EW"><path d="M0 1500h1800V0H0z" transform="matrix(1.333333 0 0 -1.333333 27102.667 2000)"/></clipPath><linearGradient x1="960.459" y1="648.646" x2="767.846" y2="841.258" spreadMethod="pad" id="EX" href="#FI"><stop offset="0" stop-color="#fff"/></linearGradient><clipPath id="EY"><path d="M-174.578 1582.07H1915.98V-105.262H-174.578z"/></clipPath><clipPath id="EZ"><path d="M0 1500h1800V0H0z" transform="matrix(1.333333 0 0 -1.333333 27102.667 2000)"/></clipPath><linearGradient x1="0" y1="0" x2="1" y2="0" gradientTransform="matrix(-810.65533,-810.65533,-810.65533,810.65533,1731.1368,1327.5415)" spreadMethod="pad" id="Ea" href="#FI"><stop offset="0" stop-color="#fff"/></linearGradient><clipPath id="Eb"><path d="M-43 1662.57h2531V-24.762H-43z"/></clipPath><clipPath id="Ec"><path d="M0 1500h1800V0H0z" transform="matrix(1.333333 0 0 -1.333333 29522.667 2000)"/></clipPath><linearGradient x1="0" y1="0" x2="1" y2="0" gradientTransform="matrix(304.08514,304.08514,304.08514,-304.08514,1139.5234,722.69238)" spreadMethod="pad" id="Ed" href="#FI"><stop offset="0" stop-color="#fff"/></linearGradient><clipPath id="Ee"><path d="M190.458 1662.57H2281.01V-24.762H190.458z"/></clipPath><clipPath id="Ef"><path d="M0 1500h1800V0H0z" transform="matrix(1.333333 0 0 -1.333333 29522.667 2000)"/></clipPath><linearGradient x1="0" y1="0" x2="1" y2="0" gradientTransform="matrix(-192.61278,-192.61278,-192.61278,192.61278,1474.1094,908.66382)" spreadMethod="pad" id="Eg" href="#FI"><stop offset="0" stop-color="#fff"/></linearGradient><clipPath id="Eh"><path d="M339.073 1662.57H2429.63V-24.762H339.073z"/></clipPath><clipPath id="Ei"><path d="M0 1500h1800V0H0z" transform="matrix(1.333333 0 0 -1.333333 29522.667 2000)"/></clipPath><linearGradient x1="2272.071" y1="191.167" x2="1918.569" y2="544.668" spreadMethod="pad" id="Ej" href="#FI"><stop offset="0" stop-color="#fff"/></linearGradient><clipPath id="Ek"><path d="M1384.35 1078.89H2488V-24.762H1384.35z"/></clipPath><clipPath id="El"><path d="M0 1500h1800V0H0z" transform="matrix(1.333333 0 0 -1.333333 29522.667 2000)"/></clipPath><linearGradient x1="1999.631" y1="463.607" x2="1789.979" y2="673.259" spreadMethod="pad" id="Em" href="#FI"><stop offset="0" stop-color="#fff"/></linearGradient><clipPath id="En"><path d="M1112.84 1350.4H2488V-24.762H1112.84z"/></clipPath><clipPath id="Eo"><path d="M0 1500h1800V0H0z" transform="matrix(1.333333 0 0 -1.333333 29522.667 2000)"/></clipPath><linearGradient x1="1731.137" y1="310.268" x2="920.481" y2="1120.923" spreadMethod="pad" id="Ep" href="#FI"><stop offset="0" stop-color="#fff"/></linearGradient><clipPath id="Eq"><path d="M-43 1662.57h2531V-24.762H-43z"/></clipPath><clipPath id="Er"><path d="M0 1500h1800V0H0z" transform="matrix(1.333333 0 0 -1.333333 29522.667 2000)"/></clipPath><linearGradient x1="1139.523" y1="915.117" x2="1443.609" y2="611.032" spreadMethod="pad" id="Es" href="#FI"><stop offset="0" stop-color="#fff"/></linearGradient><clipPath id="Et"><path d="M190.458 1662.57H2281.01V-24.762H190.458z"/></clipPath><clipPath id="Eu"><path d="M0 1500h1800V0H0z" transform="matrix(1.333333 0 0 -1.333333 29522.667 2000)"/></clipPath><linearGradient x1="1358.959" y1="729.146" x2="1166.346" y2="921.758" spreadMethod="pad" id="Ev" href="#FI"><stop offset="0" stop-color="#fff"/></linearGradient><clipPath id="Ew"><path d="M223.922 1662.57H2314.48V-24.762H223.922z"/></clipPath><clipPath id="Ex"><path d="M0 1500h1800V0H0z" transform="matrix(1.333333 0 0 -1.333333 29522.667 2000)"/></clipPath><path id="Ey" d="M0 0l110.146 39.265 4.51-12.652L4.51-12.652z"/><path id="Ez" d="M0 0l110.146 39.265 2.259-6.336L2.259-6.336z"/><path id="FA" d="M0 0l110.146 39.265 2.259-6.336L2.258-6.336z"/><path id="FB" d="M0 0l107.471 46.084 5.294-12.344L5.293-12.344z"/><path id="FC" d="M0 0l107.471 46.084 2.651-6.181L2.651-6.182z"/><path id="FD" d="M0 0l107.471 46.085 2.651-6.182L2.651-6.182z"/><path id="FE" d="M0 0l98.081 63.67 7.314-11.265L7.313-11.266z"/><path id="FF" d="M0 0l98.081 63.67 3.663-5.641L3.662-5.642z"/><path id="FG" d="M0 0l-148.561 115.014L-60.16-50.822c2.089-4.011-3.446-4.763-9.086-1.212-5.703 3.572-11.322 2.778-9.087-1.274l45.851-83.346a10.42 10.42 0 0 1 2.82-3.029l22.393-16.878c1.164-.822 2.14-1.883 2.861-3.113l92.767-176.197 160.447-118.313z"/><path id="FH" d="M0 0l-104.329 80.77 62.081-116.461c1.467-2.816-2.42-3.344-6.381-.85-4.005 2.508-7.951 1.951-6.381-.895l32.199-58.531c.512-.834 1.185-1.557 1.98-2.127l15.726-11.853c.818-.577 1.503-1.322 2.01-2.186l65.146-123.736 112.676-83.087z"/><linearGradient id="FI" gradientUnits="userSpaceOnUse"/></defs><g transform="translate(-10101.333)"><g clip-path="url(#C)" class="B"><path d="M990.027 1461.905H-23v-211.466L1430.201-202.762H2474v180.694z" transform="matrix(1.333333 0 0 -1.333333 3312 600)" clip-path="url(#B)" fill="url(#A)" class="C"/></g><g clip-path="url(#F)" class="B"><path d="M1005.263-202.762h663.949L4.545 1461.905H-23V825.5z" transform="matrix(1.333333 0 0 -1.333333 3312 600)" clip-path="url(#E)" fill="url(#D)" class="C"/></g><g clip-path="url(#I)" class="B"><path d="M990.027-202.762H-23V8.704l1453.201 1453.201H2474v-180.694z" transform="matrix(1.333333 0 0 -1.333333 3312 600)" clip-path="url(#H)" fill="url(#G)" class="C"/></g><g clip-path="url(#L)" class="B"><path d="M1005.263 1461.905h663.949L4.545-202.762H-23v636.405z" transform="matrix(1.333333 0 0 -1.333333 3312 600)" clip-path="url(#K)" fill="url(#J)" class="C"/></g><g class="G"><path d="M0 0c11.465 0 20.782 8.975 21.21 20.432l.727 19.437H60.79c16.881 0 31.024 12.594 32.956 29.316.125 2.233.222 17.25.222 19.767v275.671c0 16.521-13.441 29.961-29.961 29.961l-1243.63.001-58.531 62.042V0zm-1230.297 475.261l58.655-62.174 1235.649-.001c26.722 0 48.463-21.74 48.463-48.463V87.486h-.005l-.315-20.211c-2.914-26.172-24.994-45.908-51.36-45.908H39.76l-.061-1.626C38.897-1.704 21.46-18.502 0-18.502h-1256.656V464.79a15.18 15.18 0 0 0 9.626 14.181c1.848.734 3.768 1.091 5.666 1.091 4.108 0 8.114-1.671 11.067-4.801z" transform="matrix(1.333333 0 0 -1.333333 5580.04 708.8916)" clip-path="url(#M)" class="N O R"/><g stroke="#263238" class="H"><path d="M2508-29H-23v658h2531z" transform="matrix(1.333333 0 0 -1.333333 5050.6667 822.66667)" clip-path="url(#N)" stroke-width="1.747"/><path d="M1342-28.5H-80.949v484.235H1342z" transform="matrix(1.333333 0 0 -1.333333 8362.6667 600)" clip-path="url(#O)" stroke-width="1.124"/></g></g><g clip-path="url(#R)" class="B"><path d="M-23 479.437L1289.2-832.762H-23z" transform="matrix(1.333333 0 0 -1.333333 10101.333 822.66667)" clip-path="url(#Q)" fill="url(#P)" class="C"/></g><path d="M1976.539 617L2469 124.54V617z" transform="matrix(1.333333 0 0 -1.333333 10101.333 822.66667)" fill="url(#S)"/><g clip-path="url(#V)" class="B"><path d="M2508-249.078v672.99l-430.66 430.66h-672.99z" transform="matrix(1.333333 0 0 -1.333333 10101.333 822.66667)" clip-path="url(#U)" fill="url(#T)" class="C"/></g><g clip-path="url(#Y)" class="B"><path d="M2508-449.909v378.617l-925.863 925.864H1203.52z" transform="matrix(1.333333 0 0 -1.333333 10101.333 822.66667)" clip-path="url(#X)" fill="url(#W)" class="C"/></g><g clip-path="url(#b)" class="B"><path d="M1003.821 854.572H-23V640.226L1449.989-832.762H2508v183.154z" transform="matrix(1.333333 0 0 -1.333333 10101.333 822.66667)" clip-path="url(#a)" fill="url(#Z)" class="C"/></g><g clip-path="url(#e)" class="B"><path d="M210.458 854.572L1897.793-832.762h403.22L613.679 854.572z" transform="matrix(1.333333 0 0 -1.333333 10101.333 822.66667)" clip-path="url(#d)" fill="url(#c)" class="C"/></g><g clip-path="url(#h)" class="B"><path d="M359.073 854.572L2046.407-832.762h403.221L762.294 854.572z" transform="matrix(1.333333 0 0 -1.333333 10101.333 822.66667)" clip-path="url(#g)" fill="url(#f)" class="C"/></g><g clip-path="url(#k)" class="B"><path d="M1019.264-832.762h672.99L4.92 854.572H-23V209.501z" transform="matrix(1.333333 0 0 -1.333333 10101.333 822.66667)" clip-path="url(#j)" fill="url(#i)" class="C"/></g><g clip-path="url(#n)" class="B"><path d="M-23-457.628l1312.2 1312.2H-23z" transform="matrix(1.333333 0 0 -1.333333 10101.333 822.66667)" clip-path="url(#m)" fill="url(#l)" class="C"/></g><path d="M0 617V413.365L204.887 617z" transform="matrix(1.333333 0 0 -1.333333 10101.333 822.66667)" fill="url(#o)"/><g clip-path="url(#r)" class="B"><path d="M2508 270.887v-672.989l-430.66-430.66h-672.99z" transform="matrix(1.333333 0 0 -1.333333 10101.333 822.66667)" clip-path="url(#q)" fill="url(#p)" class="C"/></g><g clip-path="url(#u)" class="B"><path d="M2508 542.396v-399.13l-976.028-976.028h-399.13z" transform="matrix(1.333333 0 0 -1.333333 10101.333 822.66667)" clip-path="url(#t)" fill="url(#s)" class="C"/></g><g clip-path="url(#x)" class="B"><path d="M1003.821-832.762H-23v214.345L1449.989 854.572H2508V671.417z" transform="matrix(1.333333 0 0 -1.333333 10101.333 822.66667)" clip-path="url(#w)" fill="url(#v)" class="C"/></g><g clip-path="url(#AA)" class="B"><path d="M210.458-832.762L1897.793 854.572h403.22L613.679-832.762z" transform="matrix(1.333333 0 0 -1.333333 10101.333 822.66667)" clip-path="url(#z)" fill="url(#y)" class="C"/></g><g clip-path="url(#AD)" class="B"><path d="M243.922-832.762L1931.257 854.572h403.22L647.143-832.762z" transform="matrix(1.333333 0 0 -1.333333 10101.333 822.66667)" clip-path="url(#AC)" fill="url(#AB)" class="C"/></g><g clip-path="url(#AG)" class="B"><path d="M1019.264 854.572h672.99L4.92-832.762H-23v645.07z" transform="matrix(1.333333 0 0 -1.333333 10101.333 822.66667)" clip-path="url(#AF)" fill="url(#AE)" class="C"/></g><g clip-path="url(#AJ)" class="B"><path d="M-23 230.219v624.353h634.561z" transform="matrix(1.333333 0 0 -1.333333 10101.333 822.66667)" clip-path="url(#AI)" fill="url(#AH)" class="C"/></g><path d="M0 0v272.627l-58.531-62.042-1243.63-.001c-16.521 0-29.961-13.44-29.961-29.961V88.952l.221-19.767c1.932-16.722 16.076-29.316 32.957-29.316h38.853l.727-19.437C-1258.936 8.975-1249.62 0-1238.154 0zm3.21 296.062c1.898 0 3.818-.357 5.666-1.091a15.18 15.18 0 0 0 9.626-14.181V-18.502h-1256.656c-21.46 0-38.898 16.798-39.699 38.243l-.061 1.626h-21.03c-26.366 0-48.446 19.736-51.36 45.908-.226 2.029-.298 15.67-.315 20.211h-.01v93.137c0 26.723 21.74 48.463 48.463 48.463l1235.648.001 58.656 62.174c2.953 3.13 6.959 4.801 11.067 4.801z" transform="matrix(1.333333 0 0 -1.333333 11014.664 870.22493)" clip-path="url(#AK)" class="G N O R"/><text xml:space="preserve" transform="matrix(1.333333 0 0 1.333333 10298.137 310.03773)"><tspan dx="0 -3.85513 -3.0841041 -3.7780273 -3.0841041 -3.0841041 -4.3177457" font-weight="700" font-size="77.103" x="0" y="0" class="L M P S">Cultura</tspan><tspan x="-36.161" dx="0 -1.542052 -2.0817702 -1.542052 -1.542052 -1.542052 -1.542052 -1.927565 -1.542052 -1.542052 -1.542052 -1.542052 -1.542052 -1.542052" y="61.219" font-weight="normal" font-size="77.103" class="L M P S">Organizacional</tspan></text><path d="M0 0l4.327 17.957c1.583 5.914 6.865 9.966 12.873 9.966h16.013a4.33 4.33 0 0 0 .757.067l5.125.002c-.243 4.248 1.162 8.652 3.762 12.451-1.358-.001-2.716-.002-4.073.003-3.706.011-4.248 1.26-2.168 4.814 3.358 5.739 3.031 11.938-.812 15.365-4.021 3.588-10.402 3.594-16.267.018-5.786-3.529-9.41-9.765-9.027-15.536.216-3.253-1.161-4.665-4.571-4.667l-5.088-.002-.018-.067h-16.816c-3.997 0-7.496-2.684-8.531-6.545L-32.206-.913c-.696-2.598 1.261-5.149 3.951-5.149H.627A8.49 8.49 0 0 0 0 0" transform="matrix(1.333333 0 0 -1.333333 10692.309 298.72213)" clip-path="url(#AL)" fill="#c8d400"/><path d="M0 0h-12.842l.017.063c-2.266.002-4.533-.002-6.797.005-3.383.011-3.877 1.15-1.979 4.394 3.065 5.238 2.767 10.896-.741 14.025-3.67 3.274-9.494 3.28-14.847.016-5.282-3.221-8.589-8.913-8.24-14.18.197-2.969-1.059-4.258-4.172-4.261l-4.644-.001-.016-.061h-13.393c.021-2.695-.597-5.535-1.891-8.325l4.665-.002c.264 0 .526-.023.782-.069h13.215a13.2 13.2 0 0 0 10.55-5.203 13.2 13.2 0 0 0 2.294-11.538l-3.668-15.495a8.92 8.92 0 0 0-.695-1.749H-2.24c1.69 0 3.169 1.135 3.606 2.766l6.42 29.467C9.159-5.028 5.301 0 0 0" transform="matrix(1.333333 0 0 -1.333333 10884.394 250.29653)" clip-path="url(#AM)" class="P"/><path d="M0 0h-14.017l.018.069c-2.473.002-4.947-.002-7.419.005-3.692.012-4.232 1.256-2.16 4.796 3.346 5.718 3.02 11.894-.809 15.308-4.006 3.574-10.362 3.581-16.206.018-5.764-3.516-9.374-9.729-8.993-15.478.215-3.24-1.156-4.647-4.554-4.65l-5.069-.001-.018-.067H-75.98a8.8 8.8 0 0 1-8.499-6.52l-4.355-18.07c-.694-2.588 1.256-5.129 3.936-5.129H.863c1.844 0 3.459 1.238 3.936 3.019l3.7 15.623C9.997-5.488 5.786 0 0 0" transform="matrix(1.333333 0 0 -1.333333 10816.549 267.49027)" clip-path="url(#AN)" class="K"/><g fill="#c8d400"><path d="M0 0c1.574 0 2.892-.439 3.949-1.316s1.588-2.262 1.588-4.153c0-1.036-.193-1.981-.574-2.836a6.96 6.96 0 0 0-1.52-2.194 6.91 6.91 0 0 0-2.161-1.418 6.43 6.43 0 0 0-2.497-.507c-1.577 0-2.893.439-3.951 1.317s-1.587 2.262-1.587 4.152c0 1.036.192 1.981.575 2.836s.887 1.587 1.52 2.195 1.349 1.08 2.159 1.418S-.855 0 0 0" transform="matrix(1.333333 0 0 -1.333333 10789.535 447.026)" clip-path="url(#AO)"/><path d="M0 0c0 1.577.262 3.03.757 4.375h-16.991c.99 1.26 2.048 2.397 3.173 3.41l3.477 2.87 3.647 2.633 3.679 2.701 5.233 4.388c1.418 1.306 2.554 2.588 3.41 3.85s1.463 2.565 1.823 3.916.541 2.88.541 4.591c0 1.53-.316 2.971-.946 4.322A10.75 10.75 0 0 1 5.136 40.6c-1.148 1.013-2.498 1.812-4.051 2.397s-3.231.878-5.031.878c-2.88 0-5.672-.451-8.372-1.35s-5.402-2.454-8.102-4.659l3.443-7.36c2.071 1.575 3.984 2.756 5.739 3.545s3.556 1.181 5.402 1.181c1.306 0 2.374-.394 3.208-1.181s1.249-1.768 1.249-2.938c0-.945-.203-1.846-.609-2.7s-1.046-1.767-1.924-2.735-2.025-2.025-3.444-3.173l-5.164-4.085-6.01-4.693c-1.846-1.463-3.501-3.039-4.962-4.727a25.06 25.06 0 0 1-3.681-5.638c-.99-2.071-1.687-4.524-2.092-7.36H.579C.201-2.843 0-1.517 0 0" transform="matrix(1.333333 0 0 -1.333333 10773.983 457.0904)" clip-path="url(#AP)"/><path d="M0 0c-.225-1.756-.563-3.557-1.011-5.402s-1.026-3.658-1.723-5.435-1.509-3.366-2.43-4.76-1.993-2.522-3.209-3.377-2.542-1.282-3.982-1.282c-1.486 0-2.59.517-3.31 1.552s-1.08 2.724-1.08 5.064c0 1.351.112 2.904.338 4.659s.563 3.556 1.013 5.402 1.023 3.669 1.722 5.47 1.519 3.398 2.465 4.793 2.024 2.521 3.241 3.377a6.88 6.88 0 0 0 4.05 1.282c1.441 0 2.509-.54 3.208-1.62S.338 6.955.338 4.659C.338 3.309.225 1.755 0 0m8.948 11.175c-.429 1.642-1.127 3.117-2.095 4.422s-2.216 2.352-3.746 3.14-3.399 1.182-5.604 1.182c-3.512 0-6.708-.856-9.589-2.566s-5.345-4.119-7.393-7.225-3.646-6.797-4.794-11.073c-.977-3.639-1.512-7.606-1.658-11.862a9.83 9.83 0 0 0 1.462-1.005c1.904-1.58 2.857-4.07 2.857-7.471 0-1.566-.26-3.009-.745-4.344a10.9 10.9 0 0 1 2.844-2.091c1.53-.786 3.398-1.181 5.605-1.181 3.51 0 6.706.855 9.587 2.566s5.345 4.118 7.394 7.224 3.646 6.797 4.794 11.074S9.589.945 9.589 6.077a20.24 20.24 0 0 1-.641 5.098" transform="matrix(1.333333 0 0 -1.333333 10832.281 425.14867)" clip-path="url(#AQ)"/></g><text xml:space="preserve" transform="matrix(1.333333 0 0 1.333333 12367.191 304.22133)"><tspan dx="0 -4.5272079 -4.5272079 -4.5272079 -4.5272079" font-weight="300" fill="#4d4d4d" x="0" y="0" class="L M Q">Banco</tspan><tspan dx="0 -4.5272079 -4.5272079 -4.5272079 -4.5272079 -4.5272079 -4.5272079 -4.5272079 -4.5272079 -4.5272079 -4.5272079 -4.5272079 -4.5272079 -4.5272079" y="99.485" font-weight="300" fill="#4d4d4d" x="0" class="L M Q">de Información</tspan></text><text xml:space="preserve" transform="matrix(1.333333 0 0 1.333333 12367.191 569.36482)"><tspan dx="0 -4.5272079 -4.5272079 -4.5272079 -6.2249112 -4.5272079 -4.5272079 -4.5272079 -4.5272079 -4.5272079" font-weight="700" fill="#458900" x="0" y="0" class="L M Q">de Perﬁles</tspan></text><path d="M0 0l-248.785 454.184-171.894-58.175 55.752-108.412-3.53 6.057-10.444-3.467c-3.983-1.333-6.13-5.642-4.798-9.624a7.69 7.69 0 0 1 .453-1.071l27.489-53.455c3.596-7.014 11.319-10.892 19.093-9.588l7.624 1.275 133.897-260.379z" transform="matrix(1.333333 0 0 -1.333333 11615.762 862.8548)" clip-path="url(#AR)" class="E"/><g class="H I J"><path d="M0 0h0c-5.567-3.042-12.547-1.005-15.604 4.554l-6.371 11.635-387.528-212.293 248.785-454.184 387.549 212.271L91.388-190.756a11.49 11.49 0 0 0 4.554 15.583c5.565 3.047 7.606 10.03 4.559 15.595L15.583-4.554A11.49 11.49 0 0 1 0 0" transform="matrix(1.333333 0 0 -1.333333 11830.053 -4.196133)" clip-path="url(#AS)" class="D K"/><g class="F"><path d="M0 0l314.737 112.197 150.276-421.558-314.737-112.197z" transform="matrix(1.333333 0 0 -1.333333 11436.108 167.74293)" clip-path="url(#AT)"/><path d="M0 0l314.737 112.197 55.362-155.303L55.362-155.302z" transform="matrix(1.333333 0 0 -1.333333 11436.131 167.7636)" clip-path="url(#AU)"/></g><g class="D"><path d="M0 0c23.502 14.92 54.649 7.964 69.569-15.538s7.964-54.648-15.538-69.569S-.617-93.07-15.538-69.569-23.501-14.92 0 0" transform="matrix(1.333333 0 0 -1.333333 11751.257 117.428)" clip-path="url(#AV)" class="E"/><g class="F"><path d="M0 0a50.3 50.3 0 0 1 30.435 30.226C21.683 49.82.292 60.034-18.967 53.204s-29.349-28.325-23.73-49.026A50.32 50.32 0 0 1 0 0" transform="matrix(1.333333 0 0 -1.333333 11809.833 237.55653)" clip-path="url(#AW)"/><path d="M0 0c10.574 9.342 26.718 8.343 36.06-2.231s8.343-26.718-2.231-36.06-26.718-8.343-36.06 2.231S-10.574-9.342 0 0" transform="matrix(1.333333 0 0 -1.333333 11760.226 136.15813)" clip-path="url(#AX)"/></g></g><use href="#Ey" transform="matrix(1.333333 0 0 -1.333333 11499.305 228.3104)" clip-path="url(#AY)" class="F"/><use href="#Ey" transform="matrix(1.333333 0 0 -1.333333 11513.771 268.84173)" clip-path="url(#AZ)" class="F"/></g><g class="E"><use href="#Ez" transform="matrix(1.333333 0 0 -1.333333 11525.777 302.5752)" clip-path="url(#Aa)"/><use href="#Ez" transform="matrix(1.333333 0 0 -1.333333 11533.002 322.84467)" clip-path="url(#Ab)"/><use href="#Ez" transform="matrix(1.333333 0 0 -1.333333 11569.708 425.816)" clip-path="url(#Ac)"/><use href="#Ez" transform="matrix(1.333333 0 0 -1.333333 11576.313 444.40307)" clip-path="url(#Ad)"/><use href="#FA" transform="matrix(1.333333 0 0 -1.333333 11582.946 462.9624)" clip-path="url(#Ae)"/><use href="#FA" transform="matrix(1.333333 0 0 -1.333333 11768.898 354.79853)" clip-path="url(#Af)"/><use href="#FA" transform="matrix(1.333333 0 0 -1.333333 11775.53 373.3856)" clip-path="url(#Ag)"/><use href="#Ez" transform="matrix(1.333333 0 0 -1.333333 11782.137 391.95427)" clip-path="url(#Ah)"/></g><path d="M0 0l265.893 94.751" transform="matrix(1.333333 0 0 -1.333333 11560.282 410.2092)" clip-path="url(#Ai)" class="D G H I J"/><g class="E"><use href="#FA" transform="matrix(1.333333 0 0 -1.333333 11604.01 522.03587)" clip-path="url(#Aj)"/><use href="#Ez" transform="matrix(1.333333 0 0 -1.333333 11610.616 540.63227)" clip-path="url(#Ak)"/><use href="#Ez" transform="matrix(1.333333 0 0 -1.333333 11617.249 559.19147)" clip-path="url(#Al)"/><use href="#Ez" transform="matrix(1.333333 0 0 -1.333333 11803.201 451.02787)" clip-path="url(#Am)"/><use href="#Ez" transform="matrix(1.333333 0 0 -1.333333 11809.834 469.61493)" clip-path="url(#An)"/><use href="#Ez" transform="matrix(1.333333 0 0 -1.333333 11816.44 488.18347)" clip-path="url(#Ao)"/></g><g class="H I J"><path d="M0 0l265.893 94.751" transform="matrix(1.333333 0 0 -1.333333 11594.567 506.43667)" clip-path="url(#Ap)" class="D G"/><path d="M0 0l260.825 92.978 22.564-63.298L22.564-63.298z" transform="matrix(1.333333 0 0 -1.333333 11628.769 596.90867)" clip-path="url(#Aq)" class="E"/><g class="F"><path d="M0 0l307.094 131.684 176.377-411.321-307.094-131.684z" transform="matrix(1.333333 0 0 -1.333333 11391.369 228.51453)" clip-path="url(#Ar)"/><path d="M0 0l307.094 131.684 64.978-151.531L64.978-151.531z" transform="matrix(1.333333 0 0 -1.333333 11391.39 228.5236)" clip-path="url(#As)"/></g><g class="D"><path d="M0 0c14.859 23.54 45.987 30.579 69.528 15.72s30.579-45.988 15.72-69.528S39.26-84.387 15.72-69.528-14.859-23.541 0 0" transform="matrix(1.333333 0 0 -1.333333 11685.392 177.1276)" clip-path="url(#At)" class="E"/><g class="F"><path d="M0 0c13.804 5.909 24.246 17.677 28.471 32.085-9.943 18.988-31.939 27.866-50.717 19.803S-49.757 21.787-42.864 1.483C-29.512-5.377-13.794-5.921 0 0" transform="matrix(1.333333 0 0 -1.333333 11768.724 274.79427)" clip-path="url(#Au)"/><path d="M0 0c10.317 9.624 26.483 9.063 36.107-1.255s9.063-26.482-1.255-36.107S8.37-46.424-1.255-36.107-10.317-9.624 0 0" transform="matrix(1.333333 0 0 -1.333333 11713.721 175.78827)" clip-path="url(#Av)"/></g></g><use href="#FB" transform="matrix(1.333333 0 0 -1.333333 11458.222 285.0272)" clip-path="url(#Aw)" class="F"/><use href="#FB" transform="matrix(1.333333 0 0 -1.333333 11475.182 324.5528)" clip-path="url(#Ax)" class="F"/></g><g class="E"><use href="#FC" transform="matrix(1.333333 0 0 -1.333333 11489.314 357.47973)" clip-path="url(#Ay)"/><use href="#FC" transform="matrix(1.333333 0 0 -1.333333 11497.787 377.24693)" clip-path="url(#Az)"/><use href="#FD" transform="matrix(1.333333 0 0 -1.333333 11540.883 477.71907)" clip-path="url(#BA)"/><use href="#FD" transform="matrix(1.333333 0 0 -1.333333 11548.653 495.83253)" clip-path="url(#BB)"/><use href="#FD" transform="matrix(1.333333 0 0 -1.333333 11556.397 513.98493)" clip-path="url(#BC)"/><use href="#FD" transform="matrix(1.333333 0 0 -1.333333 11735.217 394.41533)" clip-path="url(#BD)"/><use href="#FC" transform="matrix(1.333333 0 0 -1.333333 11742.976 412.50333)" clip-path="url(#BE)"/><use href="#FC" transform="matrix(1.333333 0 0 -1.333333 11750.774 430.64467)" clip-path="url(#BF)"/></g><path d="M0 0l259.438 111.233" transform="matrix(1.333333 0 0 -1.333333 11530.481 462.73747)" clip-path="url(#BG)" class="D G H I J"/><g class="E"><use href="#FC" transform="matrix(1.333333 0 0 -1.333333 11581.127 571.62413)" clip-path="url(#BH)"/><use href="#FC" transform="matrix(1.333333 0 0 -1.333333 11588.914 589.71213)" clip-path="url(#BI)"/><use href="#FC" transform="matrix(1.333333 0 0 -1.333333 11596.684 607.85347)" clip-path="url(#BJ)"/><use href="#FD" transform="matrix(1.333333 0 0 -1.333333 11775.505 488.28387)" clip-path="url(#BK)"/><use href="#FC" transform="matrix(1.333333 0 0 -1.333333 11783.264 506.37187)" clip-path="url(#BL)"/><use href="#FC" transform="matrix(1.333333 0 0 -1.333333 11791.008 524.52427)" clip-path="url(#BM)"/></g><g class="H I J"><path d="M0 0l259.439 111.233" transform="matrix(1.333333 0 0 -1.333333 11570.726 556.62547)" clip-path="url(#BN)" class="D G"/><path d="M0 0l254.491 109.128 26.483-61.761L26.483-61.76z" transform="matrix(1.333333 0 0 -1.333333 11610.536 644.7892)" clip-path="url(#BO)" class="E"/><g class="F"><path d="M0 0l280.262 181.935 243.684-375.383-280.263-181.935z" transform="matrix(1.333333 0 0 -1.333333 11333.512 291.888)" clip-path="url(#BP)"/><path d="M0 0l280.262 181.935 89.774-138.292L89.773-138.292z" transform="matrix(1.333333 0 0 -1.333333 11333.528 291.91147)" clip-path="url(#BQ)"/></g><g class="D"><path d="M0 0c27.477 4.465 53.372-14.19 57.837-41.667S43.647-95.039 16.17-99.504s-53.372 14.19-57.837 41.667S-27.477-4.465 0 0" transform="matrix(1.333333 0 0 -1.333333 11665.821 150.60013)" clip-path="url(#BR)" class="E"/><path d="M0 0c12.602 8.166 20.898 21.534 22.623 36.451-13.035 17.045-36.222 22.017-53.35 10.904S-52.744 13.014-42.488-5.828A50.26 50.26 0 0 1 0 0" transform="matrix(1.333333 0 0 -1.333333 11713.243 273.1232)" clip-path="url(#BS)" class="K"/><path d="M0 0c10.74 9.15 26.864 7.861 36.014-2.879s7.861-26.864-2.879-36.014-26.864-7.861-36.014 2.879S-10.74-9.15 0 0" transform="matrix(1.333333 0 0 -1.333333 11647.251 179.71387)" clip-path="url(#BT)" class="F"/></g><use href="#FE" transform="matrix(1.333333 0 0 -1.333333 11408.976 336.2188)" clip-path="url(#BU)" class="F"/><use href="#FE" transform="matrix(1.333333 0 0 -1.333333 11432.386 372.29453)" clip-path="url(#BV)" class="F"/></g><g class="E"><path d="M0 0l98.226 63.145 3.632-5.65L3.632-5.65z" transform="matrix(1.333333 0 0 -1.333333 11449.37 405.3568)" clip-path="url(#BW)"/><use href="#FF" transform="matrix(1.333333 0 0 -1.333333 11463.63 420.3764)" clip-path="url(#BX)"/><use href="#FF" transform="matrix(1.333333 0 0 -1.333333 11523.17 512.06667)" clip-path="url(#BY)"/><use href="#FF" transform="matrix(1.333333 0 0 -1.333333 11533.903 528.6272)" clip-path="url(#BZ)"/><use href="#FF" transform="matrix(1.333333 0 0 -1.333333 11544.635 545.18773)" clip-path="url(#Ba)"/><use href="#FF" transform="matrix(1.333333 0 0 -1.333333 11700.551 396.9104)" clip-path="url(#Bb)"/><use href="#FF" transform="matrix(1.333333 0 0 -1.333333 11711.307 413.45573)" clip-path="url(#Bc)"/><use href="#FF" transform="matrix(1.333333 0 0 -1.333333 11722.04 430.01613)" clip-path="url(#Bd)"/></g><path d="M0 0l236.753 153.72" transform="matrix(1.333333 0 0 -1.333333 11510.427 498.94467)" clip-path="url(#Be)" class="D G H I J"/><g class="E"><use href="#FF" transform="matrix(1.333333 0 0 -1.333333 11578.801 597.78107)" clip-path="url(#Bf)"/><use href="#FF" transform="matrix(1.333333 0 0 -1.333333 11589.519 614.31827)" clip-path="url(#Bg)"/><use href="#FF" transform="matrix(1.333333 0 0 -1.333333 11600.275 630.83573)" clip-path="url(#Bh)"/><use href="#FF" transform="matrix(1.333333 0 0 -1.333333 11756.183 482.6248)" clip-path="url(#Bi)"/><use href="#FF" transform="matrix(1.333333 0 0 -1.333333 11766.923 499.1468)" clip-path="url(#Bj)"/><use href="#FF" transform="matrix(1.333333 0 0 -1.333333 11777.628 515.70733)" clip-path="url(#Bk)"/></g><g class="H I J"><path d="M0 0l236.753 153.7" transform="matrix(1.333333 0 0 -1.333333 11566.047 584.6164)" clip-path="url(#Bl)" class="D G"/><path d="M0 0l232.255 150.771 36.59-56.364L36.589-56.364z" transform="matrix(1.333333 0 0 -1.333333 11620.246 664.90413)" clip-path="url(#Bm)" class="E"/><use href="#FG" transform="matrix(1.333333 0 0 -1.333333 11284.049 257.27547)" clip-path="url(#Bn)" class="K"/></g><g opacity=".25" clip-path="url(#Bp)" class="E H I J"><use href="#FG" transform="matrix(1.333333 0 0 -1.333333 11284.049 257.27547)" clip-path="url(#Bo)"/></g><path d="M0 0c-6.455-1.796-21.328-6.496-29.244-9.128L-43.866 4.261C-40.315 6.1-32.44 9.525-23.5 13.369a123.82 123.82 0 0 0 25.651 6.58c.727-1.344 1.201-2.81 1.4-4.324.835-2.589 1.883-5.104 3.133-7.52A27.16 27.16 0 0 0 0 0m112.355 117.858c-.032.077-.093.138-.169.17-2.482 1.082-23.333.891-23.884-.339 0-.149.106-.34.424-.552a9.21 9.21 0 0 1 1.4-.721 30.69 30.69 0 0 1 2.121-.806l2.397-.806 3.542-1.103 1.867-.552 1.23-.339L79.69 91.917c-4.498-4.106-9.221-7.959-14.148-11.539l-.975.976c-1.412 1.364-2.907 2.639-4.476 3.818v1.117a45.47 45.47 0 0 0-5.572-3.05C47.31 79.583 27.092 70.434 19.884 55.77c-3.614-7.441-7.625-14.679-12.015-21.682v-.961H5.508c-7.053.606-20.491-4.074-30.37-8.941-8.437-4.655-16.561-9.854-24.321-15.562l-7.661-2.694c-2.784-.397-7.891-1.045-8.603-1.901s-5.672 0-7.869-.543-1.57-2.089-1.57-2.089L-70.7 1-98.308-8.588-76.1-26.176l30.119 11.154 1.611-.397c3.212-.985 6.683-.677 9.67.857 1.063.397 2.104.851 3.119 1.358 5.568.731 22.5 4.449 28.382 5.744 4.416-5.974 17.017-16.022 19.172-20.367.102-.23.186-.467.251-.71v-.167c.044-.178.044-.365 0-.543-.996-2.431-2.297-4.726-3.872-6.831a56.37 56.37 0 0 1-8.853 2.82c-11.449 2.632-17.708-9.233-19.696-9.817s-4.416-2.34-2.093-4.011-1.193-3.217-2.616-5.473a19.1 19.1 0 0 1-1.78-5.661c-7.555-.647-14.023-3.76-15.698-8.355-2.093-5.87 16.975-10.173 16.975-10.173S4.985-87.046 25.12-80.592s19.361 17.213 20.931 22.978 18 19.949 36.44 29.829 26.456 18.8 8.916 32.19c-11.512 8.794-21.642 13.014-29.993 13.348.209.501.439 1.002.669 1.483l.419.919c.251.522.544 1.023.816 1.546l.419.752a35.54 35.54 0 0 0 1.403 2.214c.874 1.24 1.637 2.554 2.281 3.927a20.85 20.85 0 0 1 1.528 13.64c-.358 1.323-.555 2.683-.586 4.053.419 2.739 4.99 13.513 6.157 18.29l.042.545c-.123 1.508-.567 2.969-1.301 4.289 4.709 2.799 14.191 7.896 18.544 12.721s13.877 22.017 17.435 30.832c.147.355.272.71.398 1.044.126.313.23.648.335.94.084.293.167.564.251.815v-.248s.674.439.716.627c-.01.034 1.373.104 1.373.104v.764.148a1.93 1.93 0 0 1 0 .34v.169s.063.128.042.191" transform="matrix(1.333333 0 0 -1.333333 11979.784 751.64307)" clip-path="url(#Bq)" fill="#d9e6a9"/><g class="H"><g class="I J"><path d="M0 0a393.24 393.24 0 0 0 10.967-40.566l9.107-49.757S4.575-91.2 4.303-93.728s20.45-12.533 23.542-11.551 4.867 64.045 3.008 78.374S19.092 6.517 18.319 10.82L15.855 23.5z" transform="matrix(1.333333 0 0 -1.333333 12094.394 460.78787)" clip-path="url(#Br)" class="F"/><g class="D"><path d="M0 0c.773.23 1.462 4.178 2.089 10.444-6.079-4.47-10.444 0-10.444 0l.563 4.471s-15.499-.878-15.77-3.405S-3.091-.961 0 0" transform="matrix(1.333333 0 0 -1.333333 12131.52 601.1604)" clip-path="url(#Bs)" class="K"/><path d="M0 0s-24.607 25.359-28.262 27.155-4.93-2.089-3.886-4.282 26.069-35.365 30.31-39.688S0 0 0 0" transform="matrix(1.333333 0 0 -1.333333 12082.111 208.8692)" clip-path="url(#Bt)" class="F"/></g><path d="M0 0l-32.983-23.771 39.02-56.296L36.2-54.687z" transform="matrix(1.333333 0 0 -1.333333 11996.996 113.08733)" clip-path="url(#Bu)" class="E"/><path d="M0 0l-27.907-20.116L5.118-67.763 30.644-46.29z" transform="matrix(1.333333 0 0 -1.333333 11997.303 121.24787)" clip-path="url(#Bv)" class="K"/><g class="D"><g class="F"><path d="M0 0c-1.071 2.637-2.385 5.169-3.927 7.562-2.716 4.177-4.449 6.413-9.233 6.141-3.554-.104-7.11.155-10.611.773-2.737.292-2.779-3.656-1.337-5.013s9.4-1.024 9.4-1.024c-.815 1.065-.209-.668 5.055-7.917 1.483-2.089 6.684-2.444 7.854-2.569" transform="matrix(1.333333 0 0 -1.333333 12048.355 178.65027)" clip-path="url(#Bw)"/><path d="M0 0a95.4 95.4 0 0 1-2.444-15.708c0-5.014 2.715-9.693-.668-11.823s-1.964-6.685-.314-8.732.794-27.97 13.933-28.158 25.777 6.58 28.451 13.808 9.295 27.802.96 37.495S7.687 12.951 0 0" transform="matrix(1.333333 0 0 -1.333333 12095.424 57.9688)" clip-path="url(#Bx)"/></g><g class="G"><path d="M0 0l2.068-3.802-2.507-.083" transform="matrix(1.333333 0 0 -1.333333 12096.093 89.9704)" clip-path="url(#By)"/><path d="M0 0s3.927 0 4.178-6.517" transform="matrix(1.333333 0 0 -1.333333 12095.536 81.837733)" clip-path="url(#Bz)"/></g></g><g class="F"><path d="M0 0a103.23 103.23 0 0 0 0-17.547 6.14 6.14 0 0 0-1.107-2.632c6.525 4.481 13.532 8.215 20.889 11.134l2.088.794C20.802.614 20.272 9.536 20.283 18.466z" transform="matrix(1.333333 0 0 -1.333333 12123.359 138.68307)" clip-path="url(#CA)"/><path d="M0 0s-1.128-28.304 1.253-37.976 11.176-89.675 10.8-96.903l-.669-10.194-23.959-3.801c-2.214-.627-2.945-3.53 9.087-6.977s21.285-8.732 23.855-4.742 6.057 18.8 7.081 29.6c2.402 25.066 6.517 53.224 4.052 65.883s-8.877 28.408-8 32.586 14.455 50.133 14.455 50.133z" transform="matrix(1.333333 0 0 -1.333333 12048.633 472.06773)" clip-path="url(#CB)"/></g><g class="K"><path d="M0 0c1.326 2.753 2.235 5.689 2.695 8.711C-3.676 5.348-11.51 10.11-11.51 10.11l2.528 5.41-23.96-3.801c-2.214-.627-2.945-3.531 9.087-6.977S-2.569-3.99 0 0" transform="matrix(1.333333 0 0 -1.333333 12075.789 686.1916)" clip-path="url(#CC)" class="D"/><path d="M0 0a103.23 103.23 0 0 0 0-17.547c-.877-8.042-37.286-31.625-36.367-40.503s5.201-21.244 2.799-31.625-15.729-46.52-18.382-59.387-12.743-110.711-8.189-115.014 22.978-2.486 32.253 2.758S.543-236.252 2.235-226.413s3.593 32.816 4.825 38.331 10.821 18.799 9.756 43.406 7.812 54.311 9.901 73.466 0 45.12-3.322 55.502-3.154 34.174-3.154 34.174z" transform="matrix(1.333333 0 0 -1.333333 12123.359 138.68307)" clip-path="url(#CD)"/></g><path d="M0 0c1.713 9.839 3.593 32.816 4.825 38.331s10.821 18.8 9.755 43.407c-.605 13.494 1.818 28.534 4.471 42.55-6.956-6.601-25.067-21.975-44.389-23.771-13.975-1.316-18.528 2.757-19.844 6.559-3.865-11.656-7.708-23.458-9.003-29.725-2.674-12.867-12.743-110.71-8.189-115.013s22.978-2.486 32.252 2.757S-1.692-9.839 0 0" transform="matrix(1.333333 0 0 -1.333333 12126.284 440.56747)" clip-path="url(#CE)" class="D E"/></g><g stroke="#fff" class="G T D"><path d="M0 0l-28.2-49.13" transform="matrix(1.333333 0 0 -1.333333 12121.02 402.52213)" clip-path="url(#CF)"/><path d="M0 0l-12.888-25.777" transform="matrix(1.333333 0 0 -1.333333 12103.835 444.41107)" clip-path="url(#CG)"/></g><path d="M0 0c-5.452 23.625-20.889 31.793-34.508 39.96-6.267 3.739-8.356 10.131-8.648 15.98l-.689-6.267a38.79 38.79 0 0 0 0 8.92c.229 1.379.522 2.862.856 4.47a36.56 36.56 0 0 1-.209-7.039l1.4 13.076v-.146c2.089 11.718 3.028 27.322-9.254 43.678-16.398 21.85-49.193 14.142-49.193 14.142s-21.871.522-23.228-11.865 6.788-23.918 17.797-26.382c0 0 2.235-4.763 4.783-11.886-1.155-1.087-2.048-2.423-2.611-3.906 0 0 3.635-1.818 5.452-13.62s-16.356-33.61-14.622-48.044S-95.42-3.551-96.339-11.635s-11.802-6.267-10.883-16.335c.648-7.165 12.993-16.21 20.889-22.769a165.64 165.64 0 0 1-.146-20.889 48.25 48.25 0 0 1-7.165-26.319c.543-13.453 12.972-18.236 24.774-15.082 3.245.886 6.405 2.06 9.442 3.509 11.112-4.47 38.142-1.023 51.135 20.638 13.62 22.706.898 29.976 0 46.311S5.452-23.604 0 0" transform="matrix(1.333333 0 0 -1.333333 12245.147 185.13973)" clip-path="url(#CH)" class="D E I J"/><g stroke="#fff" class="G T D"><path d="M0 0c6.599-8.789 14.628-16.408 23.751-22.539 17.254-10.904 5.452-43.595-8.168-58.113s-10.904-28.158 4.533-35.406 42.676-15.437 27.155-41.778-17.254-47.208 5.452-53.579" transform="matrix(1.333333 0 0 -1.333333 12101.468 42.539067)" clip-path="url(#CI)"/><path d="M0 0s1.253-2.089 3.551-5.118" transform="matrix(1.333333 0 0 -1.333333 12094.394 32.596)" clip-path="url(#CJ)"/><path d="M0 0c3.025-.722 6.213-.187 8.836 1.483" transform="matrix(1.333333 0 0 -1.333333 12197.64 320.276)" clip-path="url(#CK)"/><path d="M0 0c14.079-5.055 29.244-9.316 30.936-23.73C33.673-47.334 1.88-58.238 1.88-77.288c0-8.962 3.405-15.312 7.854-18.967" transform="matrix(1.333333 0 0 -1.333333 12175.414 187.3956)" clip-path="url(#CL)"/><path d="M0 0s21.787-8.168 27.155-21.787S-.982-55.397 9.901-72.651c3.363-5.306 9.379-8.627 16.21-11.384" transform="matrix(1.333333 0 0 -1.333333 12133.135 72.590933)" clip-path="url(#CM)"/><path d="M0 0s18.8-19.197 10.215-40.608S-2.319-71.69 3.948-77.33s39.501-8.063 47.605-33.756" transform="matrix(1.333333 0 0 -1.333333 12173.632 47.023067)" clip-path="url(#CN)"/></g><g class="I J"><path d="M0 0s-19.009 14.037-27.991 29.578-16.544 28.743-16.356 30.435 1.107 10.152-1.525 13.432-11.614 7.269-12.784 8.251-3.613-1.755-.898-4.178 5.41-5.306 5.41-5.306l-17.463 4.471a4.18 4.18 0 0 1 .335-4.742c1.921-1.922 7.415-2.507 7.603-4.679s5.745-6.267 8.105-8.147a8.19 8.19 0 0 1 3.614-2.089s10.006-33.61 17.045-47.647S-17.15-19.865-9.692-21.954 6.914-10.925 6.914-10.925z" transform="matrix(1.333333 0 0 -1.333333 12071.806 287.57813)" clip-path="url(#CO)" class="F"/><path d="M0 0s-10.173-7.019-13.348-16.502-19.385-32.524-21.724-38.268c-1.063-2.864-2.51-5.57-4.303-8.043 0 0 2.089-12.533 10.736-19.134S-17.317-87.9-17.317-87.9s31.333 50.927 36.389 62.771S13.473 5.807 0 0" transform="matrix(1.333333 0 0 -1.333333 12115.839 197.72853)" clip-path="url(#CP)" class="D K"/></g></g><g clip-path="url(#CS)" class="B"><path d="M-23 1019.437L1289.2-292.762H-23z" transform="matrix(1.333333 0 0 -1.333333 13413.333 600)" clip-path="url(#CR)" fill="url(#CQ)" class="C"/></g><g clip-path="url(#CV)" class="B"><path d="M1003.821 1394.572H-23v-214.346L1449.989-292.762H2508v183.154z" transform="matrix(1.333333 0 0 -1.333333 13413.333 600)" clip-path="url(#CU)" fill="url(#CT)" class="C"/></g><g clip-path="url(#CY)" class="B"><path d="M210.458 1394.572L1897.793-292.762h403.22L613.679 1394.572z" transform="matrix(1.333333 0 0 -1.333333 13413.333 600)" clip-path="url(#CX)" fill="url(#CW)" class="C"/></g><g clip-path="url(#Cb)" class="B"><path d="M359.073 1394.572L2046.407-292.762h403.221L762.294 1394.572z" transform="matrix(1.333333 0 0 -1.333333 13413.333 600)" clip-path="url(#Ca)" fill="url(#CZ)" class="C"/></g><g clip-path="url(#Ce)" class="B"><path d="M1019.264-292.762h672.99L4.92 1394.572H-23V749.501z" transform="matrix(1.333333 0 0 -1.333333 13413.333 600)" clip-path="url(#Cd)" fill="url(#Cc)" class="C"/></g><g clip-path="url(#Ch)" class="B"><path d="M-23 331.591v-624.353h634.561z" transform="matrix(1.333333 0 0 -1.333333 13413.333 600)" clip-path="url(#Cg)" fill="url(#Cf)" class="C"/></g><g clip-path="url(#Ck)" class="B"><path d="M-23 82.372l1312.2 1312.2H-23z" transform="matrix(1.333333 0 0 -1.333333 13413.333 600)" clip-path="url(#Cj)" fill="url(#Ci)" class="C"/></g><g clip-path="url(#Cn)" class="B"><path d="M2508 1082.396v-399.13l-976.028-976.028h-399.13z" transform="matrix(1.333333 0 0 -1.333333 13413.333 600)" clip-path="url(#Cm)" fill="url(#Cl)" class="C"/></g><g clip-path="url(#Cq)" class="B"><path d="M1003.821-292.762H-23v214.345l1472.989 1472.989H2508v-183.155z" transform="matrix(1.333333 0 0 -1.333333 13413.333 600)" clip-path="url(#Cp)" fill="url(#Co)" class="C"/></g><g clip-path="url(#Ct)" class="B"><path d="M210.458-292.762l1687.335 1687.334h403.22L613.679-292.762z" transform="matrix(1.333333 0 0 -1.333333 13413.333 600)" clip-path="url(#Cs)" fill="url(#Cr)" class="C"/></g><g clip-path="url(#Cw)" class="B"><path d="M243.922-292.762l1687.335 1687.334h403.22L647.143-292.762z" transform="matrix(1.333333 0 0 -1.333333 13413.333 600)" clip-path="url(#Cv)" fill="url(#Cu)" class="C"/></g><g clip-path="url(#Cz)" class="B"><path d="M1019.264 1394.572h672.99L4.92-292.762H-23v645.07z" transform="matrix(1.333333 0 0 -1.333333 13413.333 600)" clip-path="url(#Cy)" fill="url(#Cx)" class="C"/></g><path d="M0 0l58.655-62.174 1235.648-.001c26.723 0 48.464-21.74 48.464-48.463l-.001-277.137h0l-.315-20.211c-2.915-26.172-24.994-45.908-51.36-45.908h-21.031l-.06-1.626a39.6 39.6 0 0 0-39.699-38.243H-26.355v483.292c0 6.292 3.778 11.858 9.626 14.181 1.848.734 3.768 1.091 5.666 1.091C-6.959 4.801-2.953 3.13 0 0" transform="matrix(1.333333 0 0 -1.333333 14162.311 197.87707)" clip-path="url(#DA)" fill="#2d5f00"/><path d="M0 0l-174.712 318.956-120.714-40.854 39.152-76.134-2.479 4.254-7.335-2.435a5.34 5.34 0 0 1-3.369-6.758 5.36 5.36 0 0 1 .318-.753l19.305-37.539c2.525-4.926 7.949-7.649 13.408-6.733l5.354.895 94.031-182.854z" transform="matrix(1.333333 0 0 -1.333333 13735.532 609.69733)" clip-path="url(#DB)" class="E"/><use href="#FH" transform="matrix(1.333333 0 0 -1.333333 13502.583 184.42267)" clip-path="url(#DC)" class="H I K U"/><g opacity=".25" clip-path="url(#DE)" class="E H I U"><use href="#FH" transform="matrix(1.333333 0 0 -1.333333 13502.583 184.42267)" clip-path="url(#DD)"/></g><g clip-path="url(#DH)" class="B"><path d="M995.821 854.572H-31V640.226L1441.989-832.762H2500v183.154z" transform="matrix(1.333333 0 0 -1.333333 15152 822.66667)" clip-path="url(#DG)" fill="url(#DF)" class="C"/></g><g clip-path="url(#DK)" class="B"><path d="M995.821-832.762H-31v214.345L1441.989 854.572H2500V671.417z" transform="matrix(1.333333 0 0 -1.333333 15152 822.66667)" clip-path="url(#DJ)" fill="url(#DI)" class="C"/></g><g clip-path="url(#DN)" class="B"><path d="M995.821 1394.572H-31v-214.346L1441.989-292.762H2500v183.154z" transform="matrix(1.333333 0 0 -1.333333 18464 600)" clip-path="url(#DM)" fill="url(#DL)" class="C"/></g><g clip-path="url(#DQ)" class="B"><path d="M202.458 1394.572L1889.793-292.762h403.22L605.679 1394.572z" transform="matrix(1.333333 0 0 -1.333333 18464 600)" clip-path="url(#DP)" fill="url(#DO)" class="C"/></g><g clip-path="url(#DT)" class="B"><path d="M351.073 1394.572L2038.407-292.762h403.221L754.294 1394.572z" transform="matrix(1.333333 0 0 -1.333333 18464 600)" clip-path="url(#DS)" fill="url(#DR)" class="C"/></g><g clip-path="url(#DW)" class="B"><path d="M1011.264-292.762h672.99L-3.08 1394.572H-31V749.501z" transform="matrix(1.333333 0 0 -1.333333 18464 600)" clip-path="url(#DV)" fill="url(#DU)" class="C"/></g><g clip-path="url(#DZ)" class="B"><path d="M2500 1082.396v-399.13l-976.028-976.028h-399.13z" transform="matrix(1.333333 0 0 -1.333333 18464 600)" clip-path="url(#DY)" fill="url(#DX)" class="C"/></g><g clip-path="url(#Dc)" class="B"><path d="M995.821-292.762H-31v214.345l1472.989 1472.989H2500v-183.155z" transform="matrix(1.333333 0 0 -1.333333 18464 600)" clip-path="url(#Db)" fill="url(#Da)" class="C"/></g><g clip-path="url(#Df)" class="B"><path d="M202.458-292.762l1687.335 1687.334h403.22L605.679-292.762z" transform="matrix(1.333333 0 0 -1.333333 18464 600)" clip-path="url(#De)" fill="url(#Dd)" class="C"/></g><g clip-path="url(#Di)" class="B"><path d="M235.922-292.762l1687.335 1687.334h403.22L639.143-292.762z" transform="matrix(1.333333 0 0 -1.333333 18464 600)" clip-path="url(#Dh)" fill="url(#Dg)" class="C"/></g><g clip-path="url(#Dl)" class="B"><path d="M1011.264 1394.572h672.99L-3.08-292.762H-31v645.07z" transform="matrix(1.333333 0 0 -1.333333 18464 600)" clip-path="url(#Dk)" fill="url(#Dj)" class="C"/></g><path d="M0 0l235.533 141.9L516.84 1435.952c18.261 84.005 101.462 137.492 185.467 119.231l871.204-189.387v-.015l63.321-14.801c80.282-27.047 127.235-109.943 109.218-192.827l-14.373-66.111 5.07-1.302c66.866-17.174 107.756-83.47 93.092-150.931L1534.174-420.283 14.904-90.018c-19.779 4.3-34.695 19.982-38.002 39.951-1.045 6.312-.854 12.59.443 18.557C-19.848-18.596-11.859-7.144 0 0" transform="matrix(1.333333 0 0 -1.333333 18894.403 2378.7413)" clip-path="url(#Dm)" fill="#2d5f00"/><path d="M0 0l-.001 1307.678-145.011-153.712-1564.707-.001c-40.93 0-74.229-33.299-74.229-74.23v22.644l.549-930.972c4.786-41.43 39.827-72.632 81.649-72.632l96.261.001 1.8-48.155C-1602.628 22.235-1579.547 0-1551.141 0zm7.952 1365.737c4.703 0 9.459-.884 14.038-2.702 14.487-5.756 23.848-19.546 23.848-35.135l.001-1373.739h-1596.98c-53.167 0-96.369 41.618-98.355 94.748l-.15 4.028-52.104-.001c-65.321 0-120.024 48.897-127.245 113.738-.56 5.027-.736 920.824-.779 932.074h-.012l-.001-19.013c0 66.206 53.863 120.069 120.068 120.069l1544.933.001 145.319 154.038c7.317 7.755 17.242 11.894 27.419 11.894z" transform="matrix(1.333333 0 0 -1.333333 23984.215 2223.3799)" clip-path="url(#Dn)" stroke-width="7.539" class="G N O"/><g clip-path="url(#Dq)" class="B"><path d="M365.527 1618.405H-647.5v-211.466L805.701-46.262H1849.5v180.694z" transform="matrix(1.333333 0 0 -1.333333 22262.667 2000)" clip-path="url(#Dp)" fill="url(#Do)" class="C"/></g><g clip-path="url(#Dt)" class="B"><path d="M1849.5 1042.561V378.613L1424.625-46.262H760.676z" transform="matrix(1.333333 0 0 -1.333333 22262.667 2000)" clip-path="url(#Ds)" fill="url(#Dr)" class="C"/></g><g clip-path="url(#Dw)" class="B"><path d="M1849.5 1310.423V916.654L886.584-46.262H492.815z" transform="matrix(1.333333 0 0 -1.333333 22262.667 2000)" clip-path="url(#Dv)" fill="url(#Du)" class="C"/></g><g clip-path="url(#Dz)" class="B"><path d="M365.527-46.262H-647.5v211.466L805.701 1618.405H1849.5v-180.694z" transform="matrix(1.333333 0 0 -1.333333 22262.667 2000)" clip-path="url(#Dy)" fill="url(#Dx)" class="C"/></g><g class="G"><path d="M0 0a27.81 27.81 0 0 1 27.882 26.86l.955 25.551 51.076-.001c22.191 0 40.784 16.556 43.324 38.539.164 2.936.291 22.677.291 25.985v884.392c0 21.718-17.668 39.386-39.386 39.386l-1634.849.001-76.943 81.559L-1627.651 0zm-1617.322 1146.768l77.107-81.733 1624.357-.001c35.129 0 63.709-28.579 63.709-63.708l-.001-886.319h-.006l-.414-26.569c-3.831-34.405-32.857-60.35-67.517-60.35l-27.646.001-.08-2.138C51.134-2.239 28.21-24.322 0-24.322h-1651.973v1157.325c0 8.271 4.968 15.588 12.654 18.642a20.16 20.16 0 0 0 7.449 1.434c5.4 0 10.666-2.196 14.548-6.311z" transform="matrix(1.333333 0 0 -1.333333 24753.796 2114.6951)" clip-path="url(#EA)" stroke-width="4" class="N O"/><path d="M2173.5-64.5h-2531v1590h2531z" transform="matrix(1.333333 0 0 -1.333333 24682.667 2000)" clip-path="url(#EB)" stroke="#263238" stroke-width="2.716" class="H"/></g><g clip-path="url(#EE)" class="B"><path d="M585.321 1582.072H-441.5v-214.346L1031.489-105.262H2089.5V77.892z" transform="matrix(1.333333 0 0 -1.333333 27102.667 2000)" clip-path="url(#ED)" fill="url(#EC)" class="C"/></g><g clip-path="url(#EH)" class="B"><path d="M-208.042 1582.072L1479.293-105.262h403.22L195.179 1582.072z" transform="matrix(1.333333 0 0 -1.333333 27102.667 2000)" clip-path="url(#EG)" fill="url(#EF)" class="C"/></g><g clip-path="url(#EK)" class="B"><path d="M-59.427 1582.072L1627.907-105.262h403.221L343.794 1582.072z" transform="matrix(1.333333 0 0 -1.333333 27102.667 2000)" clip-path="url(#EJ)" fill="url(#EI)" class="C"/></g><g clip-path="url(#EN)" class="B"><path d="M2089.5 998.387V325.398l-430.66-430.66H985.85z" transform="matrix(1.333333 0 0 -1.333333 27102.667 2000)" clip-path="url(#EM)" fill="url(#EL)" class="C"/></g><g clip-path="url(#EQ)" class="B"><path d="M2089.5 1269.896v-399.13l-976.028-976.028h-399.13z" transform="matrix(1.333333 0 0 -1.333333 27102.667 2000)" clip-path="url(#EP)" fill="url(#EO)" class="C"/></g><g clip-path="url(#ET)" class="B"><path d="M585.321-105.262H-441.5v214.345l1472.989 1472.989H2089.5v-183.155z" transform="matrix(1.333333 0 0 -1.333333 27102.667 2000)" clip-path="url(#ES)" fill="url(#ER)" class="C"/></g><g clip-path="url(#EW)" class="B"><path d="M-208.042-105.262l1687.335 1687.334h403.22L195.179-105.262z" transform="matrix(1.333333 0 0 -1.333333 27102.667 2000)" clip-path="url(#EV)" fill="url(#EU)" class="C"/></g><g clip-path="url(#EZ)" class="B"><path d="M-174.578-105.262l1687.335 1687.334h403.22L228.643-105.262z" transform="matrix(1.333333 0 0 -1.333333 27102.667 2000)" clip-path="url(#EY)" fill="url(#EX)" class="C"/></g><g clip-path="url(#Ec)" class="B"><path d="M983.821 1662.572H-43v-214.346L1429.989-24.762H2488v183.154z" transform="matrix(1.333333 0 0 -1.333333 29522.667 2000)" clip-path="url(#Eb)" fill="url(#Ea)" class="C"/></g><g clip-path="url(#Ef)" class="B"><path d="M190.458 1662.572L1877.793-24.762h403.22L593.679 1662.572z" transform="matrix(1.333333 0 0 -1.333333 29522.667 2000)" clip-path="url(#Ee)" fill="url(#Ed)" class="C"/></g><g clip-path="url(#Ei)" class="B"><path d="M339.073 1662.572L2026.407-24.762h403.221L742.294 1662.572z" transform="matrix(1.333333 0 0 -1.333333 29522.667 2000)" clip-path="url(#Eh)" fill="url(#Eg)" class="C"/></g><g clip-path="url(#El)" class="B"><path d="M2488 1078.887V405.898l-430.66-430.66h-672.99z" transform="matrix(1.333333 0 0 -1.333333 29522.667 2000)" clip-path="url(#Ek)" fill="url(#Ej)" class="C"/></g><g clip-path="url(#Eo)" class="B"><path d="M2488 1350.396v-399.13L1511.972-24.762h-399.13z" transform="matrix(1.333333 0 0 -1.333333 29522.667 2000)" clip-path="url(#En)" fill="url(#Em)" class="C"/></g><g clip-path="url(#Er)" class="B"><path d="M983.821-24.762H-43v214.345l1472.989 1472.989H2488v-183.155z" transform="matrix(1.333333 0 0 -1.333333 29522.667 2000)" clip-path="url(#Eq)" fill="url(#Ep)" class="C"/></g><g clip-path="url(#Eu)" class="B"><path d="M190.458-24.762l1687.335 1687.334h403.22L593.679-24.762z" transform="matrix(1.333333 0 0 -1.333333 29522.667 2000)" clip-path="url(#Et)" fill="url(#Es)" class="C"/></g><g clip-path="url(#Ex)" class="B"><path d="M223.922-24.762l1687.335 1687.334h403.22L627.143-24.762z" transform="matrix(1.333333 0 0 -1.333333 29522.667 2000)" clip-path="url(#Ew)" fill="url(#Ev)" class="C"/></g></g></svg>