<svg xmlns="http://www.w3.org/2000/svg" width="1718.667" height="600" xmlns:v="https://vecta.io/nano"><style><![CDATA[.B{opacity:.8}.C{opacity:1}.D{stroke-linecap:round}.E{fill:#fff}.F{fill:#2e353a}.G{fill:none}.H{stroke-linejoin:round}.I{stroke-width:1.467}.J{stroke:#2e353a}.K{fill:#59ae00}.L{stroke:#59ae00}.M{stroke-miterlimit:10}.N{font-family:Ubuntu}.O{writing-mode:lr-tb}.P{fill:#29602a}.Q{fill:#c8d400}.R{font-style:italic}.S{stroke-width:.733}]]></style><defs><linearGradient x1="0" y1="0" x2="1" y2="0" gradientTransform="matrix(-799.76544,-799.76544,-799.76544,799.76544,1727.3041,1131.3755)" spreadMethod="pad" id="A" href="#Dm"><stop offset="0" stop-color="#fff"/></linearGradient><clipPath id="B"><path d="M-23 1461.91h2497V-202.762H-23z"/></clipPath><clipPath id="C"><path d="M0 450h1289V0H0z" transform="matrix(1.333333 0 0 -1.333333 3312 600)"/></clipPath><linearGradient x1="0" y1="0" x2="1" y2="0" gradientTransform="matrix(-348.75281,-348.75281,-348.75281,348.75281,829.40082,635.86627)" spreadMethod="pad" id="D" href="#Dm"><stop offset="0" stop-color="#fff"/></linearGradient><clipPath id="E"><path d="M-23 1461.91h1692.21V-202.762H-23z"/></clipPath><clipPath id="F"><path d="M0 450h1289V0H0z" transform="matrix(1.333333 0 0 -1.333333 3312 600)"/></clipPath><linearGradient x1="1727.304" y1="127.767" x2="927.539" y2="927.533" spreadMethod="pad" id="G" href="#Dm"><stop offset="0" stop-color="#fff"/></linearGradient><clipPath id="H"><path d="M-23 1461.91h2497V-202.762H-23z"/></clipPath><clipPath id="I"><path d="M0 450h1289V0H0z" transform="matrix(1.333333 0 0 -1.333333 3312 600)"/></clipPath><linearGradient x1="829.401" y1="623.276" x2="480.648" y2="972.029" spreadMethod="pad" id="J" href="#Dm"><stop offset="0" stop-color="#fff"/></linearGradient><clipPath id="K"><path d="M-23 1461.91h1692.21V-202.762H-23z"/></clipPath><clipPath id="L"><path d="M0 450h1289V0H0z" transform="matrix(1.333333 0 0 -1.333333 3312 600)"/></clipPath><clipPath id="M"><path d="M0 450h1289V0H0z" transform="translate(-1701.03 81.669)"/></clipPath><clipPath id="N"><path d="M0 617h2469V0H0z"/></clipPath><clipPath id="O"><path d="M0 450h1289V0H0z"/></clipPath><linearGradient x1="0" y1="0" x2="1" y2="0" gradientTransform="matrix(-810.65533,-810.65533,-810.65533,810.65533,1751.1368,519.54156)" spreadMethod="pad" id="P" href="#Dm"><stop offset="0" stop-color="#fff"/></linearGradient><clipPath id="Q"><path d="M-23 854.572h2531V-832.762H-23z"/></clipPath><clipPath id="R"><path d="M0 617h2469V0H0z" transform="matrix(1.333333 0 0 -1.333333 10101.333 822.66667)"/></clipPath><linearGradient x1="1751.137" y1="-497.732" x2="940.481" y2="312.923" spreadMethod="pad" id="S" href="#Dm"><stop offset="0" stop-color="#fff"/></linearGradient><clipPath id="T"><path d="M-23 854.572h2531V-832.762H-23z"/></clipPath><clipPath id="U"><path d="M0 617h2469V0H0z" transform="matrix(1.333333 0 0 -1.333333 10101.333 822.66667)"/></clipPath><linearGradient x1="0" y1="0" x2="1" y2="0" gradientTransform="matrix(-689.25909,-689.25909,-689.25909,689.25909,631.93127,362.16904)" spreadMethod="pad" id="V" href="#Dm"><stop offset="0" stop-color="#fff"/></linearGradient><clipPath id="W"><path d="M-23 1019.44h1312.2V-292.762H-23z"/></clipPath><clipPath id="X"><path d="M0 450h1289V0H0z" transform="matrix(1.333333 0 0 -1.333333 13413.333 600)"/></clipPath><linearGradient x1="0" y1="0" x2="1" y2="0" gradientTransform="matrix(-245.25723,-245.25723,-245.25723,245.25723,210.75478,-60.432106)" spreadMethod="pad" id="Y" href="#Dm"><stop offset="0" stop-color="#e2e5e6 icc-color(srgb iec61966-2.1, 0.88626099, 0.89802551, 0.90194702)"/><stop offset=".494" stop-color="#f6f6f6 icc-color(srgb iec61966-2.1, 0.96469116, 0.96469116, 0.96469116)"/><stop offset="1" stop-color="#e2e5e6 icc-color(srgb iec61966-2.1, 0.88626099, 0.89802551, 0.90194702)"/></linearGradient><linearGradient x1="0" y1="0" x2="1" y2="0" gradientTransform="matrix(-198.87633,-198.87633,-198.87633,198.87633,2044.7312,931.3028)" spreadMethod="pad" id="Z" href="#Dm"><stop offset="0" stop-color="#fff"/></linearGradient><clipPath id="a"><path d="M1203.52 1394.57H2508V90.091H1203.52z"/></clipPath><clipPath id="b"><path d="M0 450h1289V0H0z" transform="matrix(1.333333 0 0 -1.333333 13413.333 600)"/></clipPath><linearGradient x1="0" y1="0" x2="1" y2="0" gradientTransform="matrix(-810.65533,-810.65533,-810.65533,810.65533,1751.1368,1059.5415)" spreadMethod="pad" id="c" href="#Dm"><stop offset="0" stop-color="#fff"/></linearGradient><clipPath id="d"><path d="M-23 1394.57h2531V-292.762H-23z"/></clipPath><clipPath id="e"><path d="M0 450h1289V0H0z" transform="matrix(1.333333 0 0 -1.333333 13413.333 600)"/></clipPath><linearGradient x1="0" y1="0" x2="1" y2="0" gradientTransform="matrix(304.08514,304.08514,304.08514,-304.08514,1159.5234,454.69235)" spreadMethod="pad" id="f" href="#Dm"><stop offset="0" stop-color="#fff"/></linearGradient><clipPath id="g"><path d="M210.458 1394.57H2301.01V-292.762H210.458z"/></clipPath><clipPath id="h"><path d="M0 450h1289V0H0z" transform="matrix(1.333333 0 0 -1.333333 13413.333 600)"/></clipPath><linearGradient x1="0" y1="0" x2="1" y2="0" gradientTransform="matrix(-192.61278,-192.61278,-192.61278,192.61278,1494.1094,640.66382)" spreadMethod="pad" id="i" href="#Dm"><stop offset="0" stop-color="#fff"/></linearGradient><clipPath id="j"><path d="M359.073 1394.57H2449.63V-292.762H359.073z"/></clipPath><clipPath id="k"><path d="M0 450h1289V0H0z" transform="matrix(1.333333 0 0 -1.333333 13413.333 600)"/></clipPath><linearGradient x1="0" y1="0" x2="1" y2="0" gradientTransform="matrix(-353.50156,-353.50156,-353.50156,353.50156,841.00745,557.28534)" spreadMethod="pad" id="l" href="#Dm"><stop offset="0" stop-color="#fff"/></linearGradient><clipPath id="m"><path d="M-23 1394.57h1715.25V-292.762H-23z"/></clipPath><clipPath id="n"><path d="M0 450h1289V0H0z" transform="matrix(1.333333 0 0 -1.333333 13413.333 600)"/></clipPath><linearGradient x1="0" y1="0" x2="1" y2="0" gradientTransform="matrix(-333.31577,-333.31577,-333.31577,333.31577,296.26733,21.401068)" spreadMethod="pad" id="o" href="#Dm"><stop offset="0" stop-color="#fff"/></linearGradient><clipPath id="p"><path d="M-23 331.591h634.561v-624.353H-23z"/></clipPath><clipPath id="q"><path d="M0 450h1289V0H0z" transform="matrix(1.333333 0 0 -1.333333 13413.333 600)"/></clipPath><linearGradient x1="631.931" y1="739.64" x2="-57.328" y2="1428.9" spreadMethod="pad" id="r" href="#Dm"><stop offset="0" stop-color="#fff"/></linearGradient><clipPath id="s"><path d="M-23 1394.57h1312.2V82.372H-23z"/></clipPath><clipPath id="t"><path d="M0 450h1289V0H0z" transform="matrix(1.333333 0 0 -1.333333 13413.333 600)"/></clipPath><linearGradient x1="2019.631" y1="195.607" x2="1809.979" y2="405.259" spreadMethod="pad" id="u" href="#Dm"><stop offset="0" stop-color="#fff"/></linearGradient><clipPath id="v"><path d="M1132.84 1082.4H2508V-292.762H1132.84z"/></clipPath><clipPath id="w"><path d="M0 450h1289V0H0z" transform="matrix(1.333333 0 0 -1.333333 13413.333 600)"/></clipPath><linearGradient x1="1751.137" y1="42.268" x2="940.481" y2="852.923" spreadMethod="pad" id="x" href="#Dm"><stop offset="0" stop-color="#fff"/></linearGradient><clipPath id="y"><path d="M-23 1394.57h2531V-292.762H-23z"/></clipPath><clipPath id="z"><path d="M0 450h1289V0H0z" transform="matrix(1.333333 0 0 -1.333333 13413.333 600)"/></clipPath><linearGradient x1="1159.523" y1="647.117" x2="1463.609" y2="343.032" spreadMethod="pad" id="AA" href="#Dm"><stop offset="0" stop-color="#fff"/></linearGradient><clipPath id="AB"><path d="M210.458 1394.57H2301.01V-292.762H210.458z"/></clipPath><clipPath id="AC"><path d="M0 450h1289V0H0z" transform="matrix(1.333333 0 0 -1.333333 13413.333 600)"/></clipPath><linearGradient x1="1378.959" y1="461.146" x2="1186.346" y2="653.758" spreadMethod="pad" id="AD" href="#Dm"><stop offset="0" stop-color="#fff"/></linearGradient><clipPath id="AE"><path d="M243.922 1394.57H2334.48V-292.762H243.922z"/></clipPath><clipPath id="AF"><path d="M0 450h1289V0H0z" transform="matrix(1.333333 0 0 -1.333333 13413.333 600)"/></clipPath><linearGradient x1="841.007" y1="544.524" x2="487.506" y2="898.026" spreadMethod="pad" id="AG" href="#Dm"><stop offset="0" stop-color="#fff"/></linearGradient><clipPath id="AH"><path d="M-23 1394.57h1715.25V-292.762H-23z"/></clipPath><clipPath id="AI"><path d="M0 450h1289V0H0z" transform="matrix(1.333333 0 0 -1.333333 13413.333 600)"/></clipPath><clipPath id="AJ"><path d="M0 450h1289V0H0z" transform="translate(-561.733 -301.592)"/></clipPath><clipPath id="AK"><path d="M0 450h1289V0H0z" transform="translate(-993.253 -366.494)"/></clipPath><clipPath id="AL"><path d="M0 450h1289V0H0z" transform="translate(-1101.334 -393.743)"/></clipPath><clipPath id="AM"><path d="M0 450h1289V0H0z" transform="translate(-1063.159 -384.068)"/></clipPath><clipPath id="AN"><path d="M0 450h1289V0H0z" transform="translate(-1047.959 -283.047)"/></clipPath><clipPath id="AO"><path d="M0 450h1289V0H0z" transform="translate(-1039.209 -277.384)"/></clipPath><clipPath id="AP"><path d="M0 450h1289V0H0z" transform="translate(-1072.012 -295.357)"/></clipPath><clipPath id="AQ"><path d="M0 450h1289V0H0z" transform="translate(-241.649 7.273)"/></clipPath><clipPath id="AR"><path d="M0 450h1289V0H0z" transform="translate(-354.515 -449.399)"/></clipPath><clipPath id="AS"><path d="M0 450h1289V0H0z" transform="translate(-147.026 -358.839)"/></clipPath><clipPath id="AT"><path d="M0 450h1289V0H0z" transform="translate(-147.038 -358.829)"/></clipPath><clipPath id="AU"><path d="M0 450h1289V0H0z" transform="translate(-313.014 -385.34)"/></clipPath><clipPath id="AV"><path d="M0 450h1289V0H0z" transform="translate(-343.865 -322.069)"/></clipPath><clipPath id="AW"><path d="M0 450h1289V0H0z" transform="translate(-317.738 -375.475)"/></clipPath><clipPath id="AX"><path d="M0 450h1289V0H0z" transform="translate(-180.312 -326.939)"/></clipPath><clipPath id="AY"><path d="M0 450h1289V0H0z" transform="translate(-187.931 -305.591)"/></clipPath><clipPath id="AZ"><path d="M0 450h1289V0H0z" transform="translate(-194.254 -287.824)"/></clipPath><clipPath id="Aa"><path d="M0 450h1289V0H0z" transform="translate(-198.06 -277.148)"/></clipPath><clipPath id="Ab"><path d="M0 450h1289V0H0z" transform="translate(-217.393 -222.914)"/></clipPath><clipPath id="Ac"><path d="M0 450h1289V0H0z" transform="translate(-220.872 -213.124)"/></clipPath><clipPath id="Ad"><path d="M0 450h1289V0H0z" transform="translate(-224.365 -203.349)"/></clipPath><clipPath id="Ae"><path d="M0 450h1289V0H0z" transform="translate(-322.305 -260.318)"/></clipPath><clipPath id="Af"><path d="M0 450h1289V0H0z" transform="translate(-325.798 -250.528)"/></clipPath><clipPath id="Ag"><path d="M0 450h1289V0H0z" transform="translate(-329.278 -240.748)"/></clipPath><clipPath id="Ah"><path d="M0 450h1289V0H0z" transform="translate(-212.428 -231.134)"/></clipPath><clipPath id="Ai"><path d="M0 450h1289V0H0z" transform="translate(-235.459 -172.235)"/></clipPath><clipPath id="Aj"><path d="M0 450h1289V0H0z" transform="translate(-238.939 -162.44)"/></clipPath><clipPath id="Ak"><path d="M0 450h1289V0H0z" transform="translate(-242.433 -152.665)"/></clipPath><clipPath id="Al"><path d="M0 450h1289V0H0z" transform="translate(-340.372 -209.635)"/></clipPath><clipPath id="Am"><path d="M0 450h1289V0H0z" transform="translate(-343.866 -199.845)"/></clipPath><clipPath id="An"><path d="M0 450h1289V0H0z" transform="translate(-347.346 -190.065)"/></clipPath><clipPath id="Ao"><path d="M0 450h1289V0H0z" transform="translate(-230.486 -180.451)"/></clipPath><clipPath id="Ap"><path d="M0 450h1289V0H0z" transform="translate(-248.5 -132.8)"/></clipPath><clipPath id="Aq"><path d="M0 450h1289V0H0z" transform="translate(-123.462 -326.831)"/></clipPath><clipPath id="Ar"><path d="M0 450h1289V0H0z" transform="translate(-123.473 -326.827)"/></clipPath><clipPath id="As"><path d="M0 450h1289V0H0z" transform="translate(-278.323 -353.897)"/></clipPath><clipPath id="At"><path d="M0 450h1289V0H0z" transform="translate(-322.213 -302.456)"/></clipPath><clipPath id="Au"><path d="M0 450h1289V0H0z" transform="translate(-293.244 -354.602)"/></clipPath><clipPath id="Av"><path d="M0 450h1289V0H0z" transform="translate(-158.673 -297.066)"/></clipPath><clipPath id="Aw"><path d="M0 450h1289V0H0z" transform="translate(-167.606 -276.248)"/></clipPath><clipPath id="Ax"><path d="M0 450h1289V0H0z" transform="translate(-175.05 -258.906)"/></clipPath><clipPath id="Ay"><path d="M0 450h1289V0H0z" transform="translate(-179.512 -248.495)"/></clipPath><clipPath id="Az"><path d="M0 450h1289V0H0z" transform="translate(-202.21 -195.576)"/></clipPath><clipPath id="BA"><path d="M0 450h1289V0H0z" transform="translate(-206.303 -186.036)"/></clipPath><clipPath id="BB"><path d="M0 450h1289V0H0z" transform="translate(-210.382 -176.475)"/></clipPath><clipPath id="BC"><path d="M0 450h1289V0H0z" transform="translate(-304.566 -239.452)"/></clipPath><clipPath id="BD"><path d="M0 450h1289V0H0z" transform="translate(-308.653 -229.925)"/></clipPath><clipPath id="BE"><path d="M0 450h1289V0H0z" transform="translate(-312.76 -220.37)"/></clipPath><clipPath id="BF"><path d="M0 450h1289V0H0z" transform="translate(-196.731 -203.467)"/></clipPath><clipPath id="BG"><path d="M0 450h1289V0H0z" transform="translate(-223.407 -146.117)"/></clipPath><clipPath id="BH"><path d="M0 450h1289V0H0z" transform="translate(-227.509 -136.59)"/></clipPath><clipPath id="BI"><path d="M0 450h1289V0H0z" transform="translate(-231.601 -127.035)"/></clipPath><clipPath id="BJ"><path d="M0 450h1289V0H0z" transform="translate(-325.785 -190.012)"/></clipPath><clipPath id="BK"><path d="M0 450h1289V0H0z" transform="translate(-329.872 -180.485)"/></clipPath><clipPath id="BL"><path d="M0 450h1289V0H0z" transform="translate(-333.951 -170.924)"/></clipPath><clipPath id="BM"><path d="M0 450h1289V0H0z" transform="translate(-217.929 -154.017)"/></clipPath><clipPath id="BN"><path d="M0 450h1289V0H0z" transform="translate(-238.897 -107.581)"/></clipPath><clipPath id="BO"><path d="M0 450h1289V0H0z" transform="translate(-92.989 -293.453)"/></clipPath><clipPath id="BP"><path d="M0 450h1289V0H0z" transform="translate(-92.998 -293.44)"/></clipPath><clipPath id="BQ"><path d="M0 450h1289V0H0z" transform="translate(-268.015 -367.869)"/></clipPath><clipPath id="BR"><path d="M0 450h1289V0H0z" transform="translate(-292.992 -303.336)"/></clipPath><clipPath id="BS"><path d="M0 450h1289V0H0z" transform="translate(-258.234 -352.534)"/></clipPath><clipPath id="BT"><path d="M0 450h1289V0H0z" transform="translate(-132.736 -270.104)"/></clipPath><clipPath id="BU"><path d="M0 450h1289V0H0z" transform="translate(-145.066 -251.103)"/></clipPath><clipPath id="BV"><path d="M0 450h1289V0H0z" transform="translate(-154.011 -233.689)"/></clipPath><clipPath id="BW"><path d="M0 450h1289V0H0z" transform="translate(-161.522 -225.779)"/></clipPath><clipPath id="BX"><path d="M0 450h1289V0H0z" transform="translate(-192.881 -177.486)"/></clipPath><clipPath id="BY"><path d="M0 450h1289V0H0z" transform="translate(-198.534 -168.763)"/></clipPath><clipPath id="BZ"><path d="M0 450h1289V0H0z" transform="translate(-204.187 -160.041)"/></clipPath><clipPath id="Ba"><path d="M0 450h1289V0H0z" transform="translate(-286.307 -238.138)"/></clipPath><clipPath id="Bb"><path d="M0 450h1289V0H0z" transform="translate(-291.973 -229.424)"/></clipPath><clipPath id="Bc"><path d="M0 450h1289V0H0z" transform="translate(-297.625 -220.701)"/></clipPath><clipPath id="Bd"><path d="M0 450h1289V0H0z" transform="translate(-186.17 -184.397)"/></clipPath><clipPath id="Be"><path d="M0 450h1289V0H0z" transform="translate(-222.182 -132.34)"/></clipPath><clipPath id="Bf"><path d="M0 450h1289V0H0z" transform="translate(-227.827 -123.63)"/></clipPath><clipPath id="Bg"><path d="M0 450h1289V0H0z" transform="translate(-233.492 -114.931)"/></clipPath><clipPath id="Bh"><path d="M0 450h1289V0H0z" transform="translate(-315.608 -192.992)"/></clipPath><clipPath id="Bi"><path d="M0 450h1289V0H0z" transform="translate(-321.265 -184.291)"/></clipPath><clipPath id="Bj"><path d="M0 450h1289V0H0z" transform="translate(-326.904 -175.568)"/></clipPath><clipPath id="Bk"><path d="M0 450h1289V0H0z" transform="translate(-215.464 -139.274)"/></clipPath><clipPath id="Bl"><path d="M0 450h1289V0H0z" transform="translate(-244.011 -96.987)"/></clipPath><clipPath id="Bm"><path d="M0 450h1289V0H0z" transform="translate(-66.937 -311.683)"/></clipPath><clipPath id="Bn"><path d="M-38.125 393.186h280.522V-8.006H-38.125z" transform="translate(-66.937 -311.683)"/></clipPath><clipPath id="Bo"><path d="M0 450h1289V0H0z" transform="matrix(1.333333 0 0 -1.333333 13413.333 600)"/></clipPath><clipPath id="Bp"><path d="M0 450h1289V0H0z" transform="translate(-433.378 -51.302)"/></clipPath><clipPath id="Bq"><path d="M0 450h1289V0H0z" transform="translate(-493.742 -204.494)"/></clipPath><clipPath id="Br"><path d="M0 450h1289V0H0z" transform="translate(-513.297 -130.56)"/></clipPath><clipPath id="Bs"><path d="M0 450h1289V0H0z" transform="translate(-487.273 -337.178)"/></clipPath><clipPath id="Bt"><path d="M0 450h1289V0H0z" transform="translate(-442.444 -387.626)"/></clipPath><clipPath id="Bu"><path d="M0 450h1289V0H0z" transform="translate(-442.605 -383.328)"/></clipPath><clipPath id="Bv"><path d="M0 450h1289V0H0z" transform="translate(-469.494 -353.095)"/></clipPath><clipPath id="Bw"><path d="M0 450h1289V0H0z" transform="translate(-494.285 -416.657)"/></clipPath><clipPath id="Bx"><path d="M0 450h1289V0H0z" transform="translate(-494.637 -399.802)"/></clipPath><clipPath id="By"><path d="M0 450h1289V0H0z" transform="translate(-494.344 -404.085)"/></clipPath><clipPath id="Bz"><path d="M0 450h1289V0H0z" transform="translate(-508.999 -374.145)"/></clipPath><clipPath id="CA"><path d="M0 450h1289V0H0z" transform="translate(-469.641 -198.553)"/></clipPath><clipPath id="CB"><path d="M0 450h1289V0H0z" transform="translate(-483.943 -85.775)"/></clipPath><clipPath id="CC"><path d="M0 450h1289V0H0z" transform="translate(-508.999 -374.145)"/></clipPath><clipPath id="CD"><path d="M0 450h1289V0H0z" transform="translate(-510.539 -215.144)"/></clipPath><clipPath id="CE"><path d="M0 450h1289V0H0z" transform="translate(-507.766 -235.182)"/></clipPath><clipPath id="CF"><path d="M0 450h1289V0H0z" transform="translate(-498.715 -213.119)"/></clipPath><clipPath id="CG"><path d="M0 450h1289V0H0z" transform="translate(-573.143 -349.677)"/></clipPath><clipPath id="CH"><path d="M0 450h1289V0H0z" transform="translate(-497.468 -424.784)"/></clipPath><clipPath id="CI"><path d="M0 450h1289V0H0z" transform="translate(-493.742 -430.021)"/></clipPath><clipPath id="CJ"><path d="M0 450h1289V0H0z" transform="translate(-548.122 -278.501)"/></clipPath><clipPath id="CK"><path d="M0 450h1289V0H0z" transform="translate(-536.416 -348.488)"/></clipPath><clipPath id="CL"><path d="M0 450h1289V0H0z" transform="translate(-514.147 -408.956)"/></clipPath><clipPath id="CM"><path d="M0 450h1289V0H0z" transform="translate(-535.477 -422.422)"/></clipPath><clipPath id="CN"><path d="M0 450h1289V0H0z" transform="translate(-481.846 -295.723)"/></clipPath><clipPath id="CO"><path d="M0 450h1289V0H0z" transform="translate(-505.038 -343.046)"/></clipPath><linearGradient x1="0" y1="0" x2="1" y2="0" gradientTransform="matrix(-689.25909,-689.25909,-689.25909,689.25909,623.93127,-177.83095)" spreadMethod="pad" id="CP" href="#Dm"><stop offset="0" stop-color="#fff"/></linearGradient><clipPath id="CQ"><path d="M-31 479.437h1312.2V-832.762H-31z"/></clipPath><clipPath id="CR"><path d="M0 617h2469V0H0z" transform="matrix(1.333333 0 0 -1.333333 15152 822.66667)"/></clipPath><linearGradient x1="0" y1="0" x2="1" y2="0" gradientTransform="matrix(-810.65533,-810.65533,-810.65533,810.65533,1743.1368,519.54156)" spreadMethod="pad" id="CS" href="#Dm"><stop offset="0" stop-color="#fff"/></linearGradient><clipPath id="CT"><path d="M-31 854.572h2531V-832.762H-31z"/></clipPath><clipPath id="CU"><path d="M0 617h2469V0H0z" transform="matrix(1.333333 0 0 -1.333333 15152 822.66667)"/></clipPath><linearGradient x1="0" y1="0" x2="1" y2="0" gradientTransform="matrix(-353.50156,-353.50156,-353.50156,353.50156,833.00745,17.285355)" spreadMethod="pad" id="CV" href="#Dm"><stop offset="0" stop-color="#fff"/></linearGradient><clipPath id="CW"><path d="M-31 854.572h1715.25V-832.762H-31z"/></clipPath><clipPath id="CX"><path d="M0 617h2469V0H0z" transform="matrix(1.333333 0 0 -1.333333 15152 822.66667)"/></clipPath><linearGradient x1="623.931" y1="199.64" x2="-65.328" y2="888.9" spreadMethod="pad" id="CY" href="#Dm"><stop offset="0" stop-color="#fff"/></linearGradient><clipPath id="CZ"><path d="M-31 854.572h1312.2v-1312.2H-31z"/></clipPath><clipPath id="Ca"><path d="M0 617h2469V0H0z" transform="matrix(1.333333 0 0 -1.333333 15152 822.66667)"/></clipPath><linearGradient x1="1743.137" y1="-497.732" x2="932.481" y2="312.923" spreadMethod="pad" id="Cb" href="#Dm"><stop offset="0" stop-color="#fff"/></linearGradient><clipPath id="Cc"><path d="M-31 854.572h2531V-832.762H-31z"/></clipPath><clipPath id="Cd"><path d="M0 617h2469V0H0z" transform="matrix(1.333333 0 0 -1.333333 15152 822.66667)"/></clipPath><linearGradient x1="833.007" y1="4.524" x2="479.506" y2="358.026" spreadMethod="pad" id="Ce" href="#Dm"><stop offset="0" stop-color="#fff"/></linearGradient><clipPath id="Cf"><path d="M-31 854.572h1715.25V-832.762H-31z"/></clipPath><clipPath id="Cg"><path d="M0 617h2469V0H0z" transform="matrix(1.333333 0 0 -1.333333 15152 822.66667)"/></clipPath><linearGradient x1="288.267" y1="540.408" x2="-45.048" y2="873.724" spreadMethod="pad" id="Ch" href="#Dm"><stop offset="0" stop-color="#fff"/></linearGradient><clipPath id="Ci"><path d="M-31 854.572h634.561V230.219H-31z"/></clipPath><clipPath id="Cj"><path d="M0 617h2469V0H0z" transform="matrix(1.333333 0 0 -1.333333 15152 822.66667)"/></clipPath><clipPath id="Ck"><path d="M0 617h2469V0H0z" transform="translate(-931.167 38.989)"/></clipPath><linearGradient x1="0" y1="0" x2="1" y2="0" gradientTransform="matrix(-810.65533,-810.65533,-810.65533,810.65533,1743.1368,1059.5415)" spreadMethod="pad" id="Cl" href="#Dm"><stop offset="0" stop-color="#fff"/></linearGradient><clipPath id="Cm"><path d="M-31 1394.57h2531V-292.762H-31z"/></clipPath><clipPath id="Cn"><path d="M0 450h1289V0H0z" transform="matrix(1.333333 0 0 -1.333333 18464 600)"/></clipPath><linearGradient x1="0" y1="0" x2="1" y2="0" gradientTransform="matrix(-353.50156,-353.50156,-353.50156,353.50156,833.00745,557.28534)" spreadMethod="pad" id="Co" href="#Dm"><stop offset="0" stop-color="#fff"/></linearGradient><clipPath id="Cp"><path d="M-31 1394.57h1715.25V-292.762H-31z"/></clipPath><clipPath id="Cq"><path d="M0 450h1289V0H0z" transform="matrix(1.333333 0 0 -1.333333 18464 600)"/></clipPath><linearGradient x1="1743.137" y1="42.268" x2="932.481" y2="852.923" spreadMethod="pad" id="Cr" href="#Dm"><stop offset="0" stop-color="#fff"/></linearGradient><clipPath id="Cs"><path d="M-31 1394.57h2531V-292.762H-31z"/></clipPath><clipPath id="Ct"><path d="M0 450h1289V0H0z" transform="matrix(1.333333 0 0 -1.333333 18464 600)"/></clipPath><linearGradient x1="833.007" y1="544.524" x2="479.506" y2="898.026" spreadMethod="pad" id="Cu" href="#Dm"><stop offset="0" stop-color="#fff"/></linearGradient><clipPath id="Cv"><path d="M-31 1394.57h1715.25V-292.762H-31z"/></clipPath><clipPath id="Cw"><path d="M0 450h1289V0H0z" transform="matrix(1.333333 0 0 -1.333333 18464 600)"/></clipPath><clipPath id="Cx"><path d="M0 450h1289V0H0z" transform="translate(-322.802 1334.056)"/></clipPath><clipPath id="Cy"><path d="M0 500h500V0H0z" transform="translate(-1806.161 1167.535)"/></clipPath><linearGradient x1="0" y1="0" x2="1" y2="0" gradientTransform="matrix(-799.76544,-799.76544,-799.76544,799.76544,1102.8041,1287.8755)" spreadMethod="pad" id="Cz" href="#Dm"><stop offset="0" stop-color="#fff"/></linearGradient><clipPath id="DA"><path d="M-647.5 1618.41h2497V-46.262h-2497z"/></clipPath><clipPath id="DB"><path d="M0 1500h1800V0H0z" transform="matrix(1.333333 0 0 -1.333333 22262.667 2000)"/></clipPath><linearGradient x1="1102.804" y1="284.267" x2="303.039" y2="1084.033" spreadMethod="pad" id="DC" href="#Dm"><stop offset="0" stop-color="#fff"/></linearGradient><clipPath id="DD"><path d="M-647.5 1618.41h2497V-46.262h-2497z"/></clipPath><clipPath id="DE"><path d="M0 1500h1800V0H0z" transform="matrix(1.333333 0 0 -1.333333 22262.667 2000)"/></clipPath><clipPath id="DF"><path d="M0 1500h1800V0H0z" transform="translate(-1868.347 86.021)"/></clipPath><clipPath id="DG"><path d="M0 1500h1800V0H0z"/></clipPath><linearGradient x1="0" y1="0" x2="1" y2="0" gradientTransform="matrix(-810.65533,-810.65533,-810.65533,810.65533,1332.6368,1247.0415)" spreadMethod="pad" id="DH" href="#Dm"><stop offset="0" stop-color="#fff"/></linearGradient><clipPath id="DI"><path d="M-441.5 1582.07h2531V-105.262h-2531z"/></clipPath><clipPath id="DJ"><path d="M0 1500h1800V0H0z" transform="matrix(1.333333 0 0 -1.333333 27102.667 2000)"/></clipPath><linearGradient x1="0" y1="0" x2="1" y2="0" gradientTransform="matrix(304.08514,304.08514,304.08514,-304.08514,741.0235,642.19238)" spreadMethod="pad" id="DK" href="#Dm"><stop offset="0" stop-color="#fff"/></linearGradient><clipPath id="DL"><path d="M-208.042 1582.07H1882.51V-105.262H-208.042z"/></clipPath><clipPath id="DM"><path d="M0 1500h1800V0H0z" transform="matrix(1.333333 0 0 -1.333333 27102.667 2000)"/></clipPath><linearGradient x1="0" y1="0" x2="1" y2="0" gradientTransform="matrix(-192.61278,-192.61278,-192.61278,192.61278,1075.6094,828.16382)" spreadMethod="pad" id="DN" href="#Dm"><stop offset="0" stop-color="#fff"/></linearGradient><clipPath id="DO"><path d="M-59.427 1582.07H2031.13V-105.262H-59.427z"/></clipPath><clipPath id="DP"><path d="M0 1500h1800V0H0z" transform="matrix(1.333333 0 0 -1.333333 27102.667 2000)"/></clipPath><linearGradient x1="1332.637" y1="229.768" x2="521.981" y2="1040.423" spreadMethod="pad" id="DQ" href="#Dm"><stop offset="0" stop-color="#fff"/></linearGradient><clipPath id="DR"><path d="M-441.5 1582.07h2531V-105.262h-2531z"/></clipPath><clipPath id="DS"><path d="M0 1500h1800V0H0z" transform="matrix(1.333333 0 0 -1.333333 27102.667 2000)"/></clipPath><linearGradient x1="741.024" y1="834.617" x2="1045.109" y2="530.532" spreadMethod="pad" id="DT" href="#Dm"><stop offset="0" stop-color="#fff"/></linearGradient><clipPath id="DU"><path d="M-208.042 1582.07H1882.51V-105.262H-208.042z"/></clipPath><clipPath id="DV"><path d="M0 1500h1800V0H0z" transform="matrix(1.333333 0 0 -1.333333 27102.667 2000)"/></clipPath><linearGradient x1="960.459" y1="648.646" x2="767.846" y2="841.258" spreadMethod="pad" id="DW" href="#Dm"><stop offset="0" stop-color="#fff"/></linearGradient><clipPath id="DX"><path d="M-174.578 1582.07H1915.98V-105.262H-174.578z"/></clipPath><clipPath id="DY"><path d="M0 1500h1800V0H0z" transform="matrix(1.333333 0 0 -1.333333 27102.667 2000)"/></clipPath><linearGradient x1="0" y1="0" x2="1" y2="0" gradientTransform="matrix(-810.65533,-810.65533,-810.65533,810.65533,1731.1368,1327.5415)" spreadMethod="pad" id="DZ" href="#Dm"><stop offset="0" stop-color="#fff"/></linearGradient><clipPath id="Da"><path d="M-43 1662.57h2531V-24.762H-43z"/></clipPath><clipPath id="Db"><path d="M0 1500h1800V0H0z" transform="matrix(1.333333 0 0 -1.333333 29522.667 2000)"/></clipPath><linearGradient x1="1731.137" y1="310.268" x2="920.481" y2="1120.923" spreadMethod="pad" id="Dc" href="#Dm"><stop offset="0" stop-color="#fff"/></linearGradient><clipPath id="Dd"><path d="M-43 1662.57h2531V-24.762H-43z"/></clipPath><clipPath id="De"><path d="M0 1500h1800V0H0z" transform="matrix(1.333333 0 0 -1.333333 29522.667 2000)"/></clipPath><path id="Df" d="M0 0l77.351 27.574 1.586-4.449L1.586-4.449z"/><path id="Dg" d="M0 0l75.473 32.363 3.717-8.669L3.717-8.669z"/><path id="Dh" d="M0 0l75.473 32.363 1.861-4.341L1.862-4.341z"/><path id="Di" d="M0 0l75.473 32.363 1.862-4.341L1.862-4.341z"/><path id="Dj" d="M0 0l68.879 44.713 5.136-7.911L5.136-7.912z"/><path id="Dk" d="M0 0l68.879 44.713 2.572-3.962L2.572-3.962z"/><path id="Dl" d="M0 0l-104.329 80.77 62.081-116.461c1.467-2.816-2.42-3.344-6.381-.85-4.005 2.508-7.951 1.951-6.381-.895l32.199-58.531c.512-.834 1.185-1.557 1.98-2.127l15.726-11.853c.818-.577 1.503-1.322 2.01-2.186l65.146-123.736 112.676-83.087z"/><linearGradient id="Dm" gradientUnits="userSpaceOnUse"/></defs><g transform="translate(-13413.334)"><g clip-path="url(#C)" class="B"><path d="M990.027 1461.905H-23v-211.466L1430.201-202.762H2474v180.694z" transform="matrix(1.333333 0 0 -1.333333 3312 600)" clip-path="url(#B)" fill="url(#A)" class="C"/></g><g clip-path="url(#F)" class="B"><path d="M1005.263-202.762h663.949L4.545 1461.905H-23V825.5z" transform="matrix(1.333333 0 0 -1.333333 3312 600)" clip-path="url(#E)" fill="url(#D)" class="C"/></g><g clip-path="url(#I)" class="B"><path d="M990.027-202.762H-23V8.704l1453.201 1453.201H2474v-180.694z" transform="matrix(1.333333 0 0 -1.333333 3312 600)" clip-path="url(#H)" fill="url(#G)" class="C"/></g><g clip-path="url(#L)" class="B"><path d="M1005.263 1461.905h663.949L4.545-202.762H-23v636.405z" transform="matrix(1.333333 0 0 -1.333333 3312 600)" clip-path="url(#K)" fill="url(#J)" class="C"/></g><g class="G"><path d="M0 0c11.465 0 20.782 8.975 21.21 20.432l.727 19.437H60.79c16.881 0 31.024 12.594 32.956 29.316.125 2.233.222 17.25.222 19.767v275.671c0 16.521-13.441 29.961-29.961 29.961l-1243.63.001-58.531 62.042V0zm-1230.297 475.261l58.655-62.174 1235.649-.001c26.722 0 48.463-21.74 48.463-48.463V87.486h-.005l-.315-20.211c-2.914-26.172-24.994-45.908-51.36-45.908H39.76l-.061-1.626C38.897-1.704 21.46-18.502 0-18.502h-1256.656V464.79a15.18 15.18 0 0 0 9.626 14.181c1.848.734 3.768 1.091 5.666 1.091 4.108 0 8.114-1.671 11.067-4.801z" transform="matrix(1.333333 0 0 -1.333333 5580.04 708.8916)" clip-path="url(#M)" stroke-width="3.043" class="L M"/><g stroke="#263238" class="H"><path d="M2508-29H-23v658h2531z" transform="matrix(1.333333 0 0 -1.333333 5050.6667 822.66667)" clip-path="url(#N)" stroke-width="1.747"/><path d="M1342-28.5H-80.949v484.235H1342z" transform="matrix(1.333333 0 0 -1.333333 8362.6667 600)" clip-path="url(#O)" stroke-width="1.124"/></g></g><g clip-path="url(#R)" class="B"><path d="M1003.821 854.572H-23V640.226L1449.989-832.762H2508v183.154z" transform="matrix(1.333333 0 0 -1.333333 10101.333 822.66667)" clip-path="url(#Q)" fill="url(#P)" class="C"/></g><g clip-path="url(#U)" class="B"><path d="M1003.821-832.762H-23v214.345L1449.989 854.572H2508V671.417z" transform="matrix(1.333333 0 0 -1.333333 10101.333 822.66667)" clip-path="url(#T)" fill="url(#S)" class="C"/></g><g clip-path="url(#X)" class="B"><path d="M-23 1019.437L1289.2-292.762H-23z" transform="matrix(1.333333 0 0 -1.333333 13413.333 600)" clip-path="url(#W)" fill="url(#V)" class="C"/></g><path d="M0 0h149.357L0 148.445z" transform="matrix(1.333333 0 0 -1.333333 13413.333 600)" fill="url(#Y)"/><g clip-path="url(#b)" class="B"><path d="M2508 90.091v378.617l-925.863 925.864H1203.52z" transform="matrix(1.333333 0 0 -1.333333 13413.333 600)" clip-path="url(#a)" fill="url(#Z)" class="C"/></g><g clip-path="url(#e)" class="B"><path d="M1003.821 1394.572H-23v-214.346L1449.989-292.762H2508v183.154z" transform="matrix(1.333333 0 0 -1.333333 13413.333 600)" clip-path="url(#d)" fill="url(#c)" class="C"/></g><g clip-path="url(#h)" class="B"><path d="M210.458 1394.572L1897.793-292.762h403.22L613.679 1394.572z" transform="matrix(1.333333 0 0 -1.333333 13413.333 600)" clip-path="url(#g)" fill="url(#f)" class="C"/></g><g clip-path="url(#k)" class="B"><path d="M359.073 1394.572L2046.407-292.762h403.221L762.294 1394.572z" transform="matrix(1.333333 0 0 -1.333333 13413.333 600)" clip-path="url(#j)" fill="url(#i)" class="C"/></g><g clip-path="url(#n)" class="B"><path d="M1019.264-292.762h672.99L4.92 1394.572H-23V749.501z" transform="matrix(1.333333 0 0 -1.333333 13413.333 600)" clip-path="url(#m)" fill="url(#l)" class="C"/></g><g clip-path="url(#q)" class="B"><path d="M-23 331.591v-624.353h634.561z" transform="matrix(1.333333 0 0 -1.333333 13413.333 600)" clip-path="url(#p)" fill="url(#o)" class="C"/></g><g clip-path="url(#t)" class="B"><path d="M-23 82.372l1312.2 1312.2H-23z" transform="matrix(1.333333 0 0 -1.333333 13413.333 600)" clip-path="url(#s)" fill="url(#r)" class="C"/></g><g clip-path="url(#w)" class="B"><path d="M2508 1082.396v-399.13l-976.028-976.028h-399.13z" transform="matrix(1.333333 0 0 -1.333333 13413.333 600)" clip-path="url(#v)" fill="url(#u)" class="C"/></g><g clip-path="url(#z)" class="B"><path d="M1003.821-292.762H-23v214.345l1472.989 1472.989H2508v-183.155z" transform="matrix(1.333333 0 0 -1.333333 13413.333 600)" clip-path="url(#y)" fill="url(#x)" class="C"/></g><g clip-path="url(#AC)" class="B"><path d="M210.458-292.762l1687.335 1687.334h403.22L613.679-292.762z" transform="matrix(1.333333 0 0 -1.333333 13413.333 600)" clip-path="url(#AB)" fill="url(#AA)" class="C"/></g><g clip-path="url(#AF)" class="B"><path d="M243.922-292.762l1687.335 1687.334h403.22L647.143-292.762z" transform="matrix(1.333333 0 0 -1.333333 13413.333 600)" clip-path="url(#AE)" fill="url(#AD)" class="C"/></g><g clip-path="url(#AI)" class="B"><path d="M1019.264 1394.572h672.99L4.92-292.762H-23v645.07z" transform="matrix(1.333333 0 0 -1.333333 13413.333 600)" clip-path="url(#AH)" fill="url(#AG)" class="C"/></g><path d="M0 0l58.655-62.174 1235.648-.001c26.723 0 48.464-21.74 48.464-48.463l-.001-277.137h0l-.315-20.211c-2.915-26.172-24.994-45.908-51.36-45.908h-21.031l-.06-1.626a39.6 39.6 0 0 0-39.699-38.243H-26.355v483.292c0 6.292 3.778 11.858 9.626 14.181 1.848.734 3.768 1.091 5.666 1.091C-6.959 4.801-2.953 3.13 0 0" transform="matrix(1.333333 0 0 -1.333333 14162.311 197.87707)" clip-path="url(#AJ)" fill="#2d5f00"/><text xml:space="preserve" transform="matrix(1.333333 0 0 1.333333 14441.947 119.83067)"><tspan dx="0 -2.8922751 -2.3138199 -2.8344295 -2.3138199 -2.3138199 -3.2393479" font-weight="700" font-size="57.846" x="0" y="0" class="N O P R">Cultura</tspan><tspan x="-27.13" dx="0 -1.1569099 -1.5618285 -1.1569099 -1.1569099 -1.1569099 -1.1569099 -1.4461375 -1.1569099 -1.1569099 -1.1569099 -1.1569099 -1.1569099 -1.1569099" y="45.929" font-weight="normal" font-size="57.846" class="N O P R">Organizacional</tspan></text><path d="M0 0l3.246 13.472c1.188 4.437 5.15 7.477 9.658 7.477h12.014a3.25 3.25 0 0 0 .568.05l3.845.001c-.183 3.188.871 6.491 2.822 9.342-1.019 0-2.038-.001-3.056.002-2.78.009-3.187.946-1.626 3.612 2.519 4.305 2.274 8.956-.609 11.528-3.017 2.691-7.804 2.696-12.205.013-4.341-2.648-7.059-7.326-6.772-11.656.162-2.44-.871-3.5-3.43-3.502l-3.817-.001-.013-.05h-12.616c-2.999 0-5.624-2.014-6.4-4.91L-24.162-.685a3.07 3.07 0 0 1 2.964-3.863H.47C-.236-3.151-.415-1.55 0 0" transform="matrix(1.333333 0 0 -1.333333 14737.67 111.3408)" clip-path="url(#AK)" class="Q"/><path d="M0 0h-9.635l.013.047c-1.7.001-3.401-.001-5.099.004-2.538.008-2.909.863-1.485 3.296 2.3 3.931 2.076 8.175-.556 10.523-2.754 2.456-7.123 2.461-11.139.011-3.962-2.416-6.444-6.686-6.181-10.638.147-2.227-.795-3.194-3.131-3.196l-3.484-.001-.012-.046h-10.048c.016-2.022-.448-4.153-1.418-6.246l3.5-.001a3.37 3.37 0 0 0 .586-.052h9.914a9.9 9.9 0 0 0 7.915-3.904 9.9 9.9 0 0 0 1.721-8.656l-2.751-11.625c-.125-.467-.311-.898-.522-1.312H-1.68a2.8 2.8 0 0 1 2.705 2.076L5.842-7.613A6.05 6.05 0 0 1 0 0" transform="matrix(1.333333 0 0 -1.333333 14881.779 75.01)" clip-path="url(#AL)" class="P"/><path d="M0 0h-10.516l.013.052c-1.855.001-3.711-.002-5.565.004-2.771.008-3.176.942-1.621 3.598 2.51 4.29 2.265 8.923-.607 11.485-3.006 2.681-7.774 2.686-12.158.013-4.325-2.638-7.034-7.299-6.747-11.612.161-2.432-.868-3.487-3.417-3.489L-44.421.05-44.434 0h-12.57a6.6 6.6 0 0 1-6.375-4.892l-3.268-13.556a3.06 3.06 0 0 1 2.953-3.849H.648c1.383 0 2.594.93 2.952 2.266L6.376-8.31C7.5-4.118 4.341 0 0 0" transform="matrix(1.333333 0 0 -1.333333 14830.879 87.909467)" clip-path="url(#AM)" class="K"/><g class="Q"><path d="M0 0c1.181 0 2.17-.329 2.963-.987s1.191-1.698 1.191-3.116c0-.778-.145-1.486-.431-2.128s-.667-1.19-1.14-1.646S1.57-8.687.962-8.941s-1.233-.38-1.873-.38c-1.183 0-2.171.329-2.965.988s-1.19 1.697-1.19 3.115c0 .777.144 1.486.431 2.128s.666 1.191 1.14 1.646 1.012.811 1.62 1.064S-.642 0 0 0" transform="matrix(1.333333 0 0 -1.333333 14810.612 222.60427)" clip-path="url(#AN)"/><path d="M0 0c0 1.183.197 2.273.568 3.282h-12.747a20.25 20.25 0 0 0 2.38 2.559l2.608 2.152 2.737 1.976 2.76 2.026 3.926 3.293c1.064.979 1.916 1.942 2.558 2.888s1.097 1.925 1.368 2.938.405 2.161.405 3.444c0 1.148-.236 2.229-.709 3.243S4.714 29.7 3.853 30.46 1.979 31.819.814 32.258s-2.424.659-3.774.659a19.75 19.75 0 0 1-6.282-1.013c-2.026-.676-4.052-1.841-6.078-3.496l2.583-5.521c1.554 1.181 2.989 2.068 4.306 2.659s2.668.887 4.052.887c.98 0 1.782-.296 2.407-.887a2.91 2.91 0 0 0 .937-2.203 4.66 4.66 0 0 0-.457-2.027c-.303-.642-.784-1.325-1.443-2.051s-1.519-1.52-2.584-2.381l-3.874-3.065-4.509-3.521a27.5 27.5 0 0 1-3.723-3.545c-1.098-1.267-2.019-2.677-2.761-4.231s-1.266-3.393-1.57-5.521H.435C.15-2.133 0-1.138 0 0" transform="matrix(1.333333 0 0 -1.333333 14798.945 230.15507)" clip-path="url(#AO)"/><path d="M0 0c-.169-1.317-.422-2.668-.759-4.053s-.769-2.744-1.292-4.078-1.132-2.525-1.823-3.571-1.495-1.892-2.407-2.533a5.08 5.08 0 0 0-2.988-.962c-1.115 0-1.943.388-2.483 1.165s-.811 2.043-.811 3.799c0 1.013.084 2.178.253 3.495a36.89 36.89 0 0 0 .761 4.053c.337 1.384.768 2.752 1.292 4.103s1.139 2.55 1.849 3.597 1.519 1.891 2.431 2.533 1.925.962 3.039.962c1.081 0 1.883-.405 2.407-1.215s.784-2.077.784-3.8C.253 2.482.169 1.317 0 0m6.713 8.384c-.322 1.232-.845 2.338-1.571 3.318s-1.663 1.764-2.811 2.355-2.55.887-4.204.887c-2.635 0-5.033-.642-7.194-1.925s-4.01-3.09-5.547-5.421-2.736-5.099-3.597-8.307c-.732-2.73-1.134-5.706-1.243-8.9.385-.217.752-.467 1.096-.753 1.429-1.185 2.143-3.053 2.143-5.606 0-1.174-.194-2.257-.558-3.259.605-.62 1.313-1.146 2.133-1.568 1.148-.59 2.55-.886 4.206-.886 2.633 0 5.031.641 7.193 1.925s4.01 3.09 5.547 5.42 2.735 5.099 3.596 8.308S7.194.709 7.194 4.559c0 1.317-.161 2.592-.481 3.825" transform="matrix(1.333333 0 0 -1.333333 14842.683 206.19107)" clip-path="url(#AP)"/></g><text xml:space="preserve" transform="matrix(1.333333 0 0 1.333333 14241.858 415.21093)"><tspan dx="0 -2.2966361 -2.2966361 -2.2966361 -2.2966361 -2.2966361 -2.2966361 -2.2966361" font-weight="300" font-size="57.416" x="0" y="0" class="E N O">Banco de</tspan></text><text xml:space="preserve" transform="matrix(1.333333 0 0 1.333333 14241.858 482.50237)"><tspan dx="0 -2.2966361 -2.2966361 -2.7559631 -2.2966361 -2.2966361 -2.2966361 -2.2966361 -2.2966361 -2.2966361 -2.2966361 -2.2966361 -2.2966361 -2.2966361 -2.2966361 -2.2966361 -3.1578746 -2.2966361 -2.2966361 -2.2966361 -2.2966361 -2.2966361" font-weight="700" font-size="57.416" x="0" y="0" class="N O Q">Información de Perﬁles</tspan></text><path d="M0 0l-174.712 318.956-120.714-40.854 39.152-76.134-2.479 4.254-7.335-2.435a5.34 5.34 0 0 1-3.369-6.758 5.36 5.36 0 0 1 .318-.753l19.305-37.539c2.525-4.926 7.949-7.649 13.408-6.733l5.354.895 94.031-182.854z" transform="matrix(1.333333 0 0 -1.333333 13735.532 609.69733)" clip-path="url(#AQ)" class="F"/><g class="H I J"><path d="M0 0h0c-3.91-2.136-8.811-.706-10.958 3.198l-4.474 8.171-272.146-149.085 174.712-318.956 272.161 149.07-95.117 173.641a8.07 8.07 0 0 0 3.198 10.944 8.07 8.07 0 0 1 3.202 10.952L10.943-3.198A8.07 8.07 0 0 1 0 0" transform="matrix(1.333333 0 0 -1.333333 13886.02 .801333)" clip-path="url(#AR)" class="D K"/><g class="E"><path d="M0 0l221.027 78.791L326.56-217.252l-221.027-78.792z" transform="matrix(1.333333 0 0 -1.333333 13609.368 121.54747)" clip-path="url(#AS)"/><path d="M0 0l221.027 78.791 38.879-109.063-221.028-78.791z" transform="matrix(1.333333 0 0 -1.333333 13609.384 121.56187)" clip-path="url(#AT)"/></g><g class="D"><path d="M0 0c16.504 10.478 38.378 5.593 48.855-10.912s5.593-38.377-10.911-48.855S-.434-65.36-10.912-48.855-16.504-10.478 0 0" transform="matrix(1.333333 0 0 -1.333333 13830.685 86.2132)" clip-path="url(#AU)" class="F"/><g class="E"><path d="M0 0c9.935 3.531 17.774 11.316 21.373 21.227C15.227 34.986.205 42.16-13.32 37.363S-33.93 17.471-29.984 2.934C-20.928-2.469-9.932-3.545 0 0" transform="matrix(1.333333 0 0 -1.333333 13871.82 170.5748)" clip-path="url(#AV)"/><path d="M0 0c7.426 6.56 18.763 5.859 25.323-1.567s5.859-18.763-1.566-25.323-18.763-5.859-25.324 1.567S-7.426-6.56 0 0" transform="matrix(1.333333 0 0 -1.333333 13836.984 99.366667)" clip-path="url(#AW)"/></g></g><path d="M0 0l77.351 27.574 3.168-8.885L3.167-8.885z" transform="matrix(1.333333 0 0 -1.333333 13653.749 164.0816)" clip-path="url(#AX)" class="E"/><path d="M0 0l77.351 27.574 3.167-8.885L3.167-8.885z" transform="matrix(1.333333 0 0 -1.333333 13663.908 192.54507)" clip-path="url(#AY)" class="E"/></g><g class="F"><use href="#Df" transform="matrix(1.333333 0 0 -1.333333 13672.339 216.2348)" clip-path="url(#AZ)"/><use href="#Df" transform="matrix(1.333333 0 0 -1.333333 13677.413 230.46933)" clip-path="url(#Aa)"/><use href="#Df" transform="matrix(1.333333 0 0 -1.333333 13703.19 302.782)" clip-path="url(#Ab)"/><use href="#Df" transform="matrix(1.333333 0 0 -1.333333 13707.829 315.83507)" clip-path="url(#Ac)"/><use href="#Df" transform="matrix(1.333333 0 0 -1.333333 13712.487 328.86853)" clip-path="url(#Ad)"/><use href="#Df" transform="matrix(1.333333 0 0 -1.333333 13843.073 252.90933)" clip-path="url(#Ae)"/><use href="#Df" transform="matrix(1.333333 0 0 -1.333333 13847.731 265.96227)" clip-path="url(#Af)"/><use href="#Df" transform="matrix(1.333333 0 0 -1.333333 13852.371 279.00227)" clip-path="url(#Ag)"/></g><path d="M0 0l186.726 66.54" transform="matrix(1.333333 0 0 -1.333333 13696.57 291.822)" clip-path="url(#Ah)" class="D G H I J"/><g class="F"><use href="#Df" transform="matrix(1.333333 0 0 -1.333333 13727.279 370.3536)" clip-path="url(#Ai)"/><use href="#Df" transform="matrix(1.333333 0 0 -1.333333 13731.919 383.41307)" clip-path="url(#Aj)"/><use href="#Df" transform="matrix(1.333333 0 0 -1.333333 13736.577 396.44653)" clip-path="url(#Ak)"/><use href="#Df" transform="matrix(1.333333 0 0 -1.333333 13867.163 320.48733)" clip-path="url(#Al)"/><use href="#Df" transform="matrix(1.333333 0 0 -1.333333 13871.821 333.54027)" clip-path="url(#Am)"/><use href="#Df" transform="matrix(1.333333 0 0 -1.333333 13876.461 346.58027)" clip-path="url(#An)"/></g><g class="H I J"><path d="M0 0l186.726 66.54" transform="matrix(1.333333 0 0 -1.333333 13720.648 359.3988)" clip-path="url(#Ao)" class="D G"/><path d="M0 0l183.167 65.295 15.846-44.452L15.846-44.451z" transform="matrix(1.333333 0 0 -1.333333 13744.666 422.93373)" clip-path="url(#Ap)" class="F"/><g class="E"><path d="M0 0l215.66 92.477 123.863-288.855-215.66-92.476z" transform="matrix(1.333333 0 0 -1.333333 13577.95 164.22493)" clip-path="url(#Aq)"/><path d="M0 0l215.66 92.477 45.631-106.415-215.66-92.476z" transform="matrix(1.333333 0 0 -1.333333 13577.964 164.23133)" clip-path="url(#Ar)"/></g><g class="D"><path d="M0 0c10.435 16.532 32.295 21.474 48.827 11.039s21.474-32.295 11.039-48.826-32.295-21.474-48.827-11.04S-10.435-16.532 0 0" transform="matrix(1.333333 0 0 -1.333333 13784.43 128.13787)" clip-path="url(#As)" class="F"/><g class="E"><path d="M0 0c9.694 4.15 17.027 12.414 19.994 22.532-6.982 13.335-22.429 19.569-35.617 13.907S-34.942 15.3-30.102 1.042C-20.725-3.776-9.687-4.158 0 0" transform="matrix(1.333333 0 0 -1.333333 13842.951 196.72533)" clip-path="url(#At)"/><path d="M0 0c7.245 6.759 18.598 6.364 25.357-.881s6.364-18.598-.881-25.357-18.598-6.364-25.357.881S-7.245-6.759 0 0" transform="matrix(1.333333 0 0 -1.333333 13804.325 127.19733)" clip-path="url(#Au)"/></g></g><use href="#Dg" transform="matrix(1.333333 0 0 -1.333333 13624.898 203.9116)" clip-path="url(#Av)" class="E"/><use href="#Dg" transform="matrix(1.333333 0 0 -1.333333 13636.808 231.6688)" clip-path="url(#Aw)" class="E"/></g><g class="F"><use href="#Dh" transform="matrix(1.333333 0 0 -1.333333 13646.733 254.79213)" clip-path="url(#Ax)"/><use href="#Dh" transform="matrix(1.333333 0 0 -1.333333 13652.683 268.67387)" clip-path="url(#Ay)"/><use href="#Dh" transform="matrix(1.333333 0 0 -1.333333 13682.947 339.23147)" clip-path="url(#Az)"/><use href="#Di" transform="matrix(1.333333 0 0 -1.333333 13688.404 351.95187)" clip-path="url(#BA)"/><use href="#Dh" transform="matrix(1.333333 0 0 -1.333333 13693.842 364.6996)" clip-path="url(#BB)"/><use href="#Di" transform="matrix(1.333333 0 0 -1.333333 13819.421 280.73053)" clip-path="url(#BC)"/><use href="#Di" transform="matrix(1.333333 0 0 -1.333333 13824.87 293.43307)" clip-path="url(#BD)"/><use href="#Di" transform="matrix(1.333333 0 0 -1.333333 13830.346 306.17307)" clip-path="url(#BE)"/></g><path d="M0 0l182.194 78.114" transform="matrix(1.333333 0 0 -1.333333 13675.642 328.71053)" clip-path="url(#BF)" class="D G H I J"/><g class="F"><use href="#Di" transform="matrix(1.333333 0 0 -1.333333 13711.209 405.17747)" clip-path="url(#BG)"/><use href="#Di" transform="matrix(1.333333 0 0 -1.333333 13716.678 417.87987)" clip-path="url(#BH)"/><use href="#Di" transform="matrix(1.333333 0 0 -1.333333 13722.135 430.61987)" clip-path="url(#BI)"/><use href="#Di" transform="matrix(1.333333 0 0 -1.333333 13847.713 346.6508)" clip-path="url(#BJ)"/><use href="#Di" transform="matrix(1.333333 0 0 -1.333333 13853.162 359.35333)" clip-path="url(#BK)"/><use href="#Di" transform="matrix(1.333333 0 0 -1.333333 13858.601 372.10107)" clip-path="url(#BL)"/></g><g class="H I J"><path d="M0 0l182.194 78.114" transform="matrix(1.333333 0 0 -1.333333 13703.905 394.64453)" clip-path="url(#BM)" class="D G"/><path d="M0 0l178.719 76.636 18.598-43.372L18.598-43.372z" transform="matrix(1.333333 0 0 -1.333333 13731.862 456.5584)" clip-path="url(#BN)" class="F"/><g class="E"><path d="M0 0l196.817 127.766 171.13-263.617-196.818-127.766z" transform="matrix(1.333333 0 0 -1.333333 13537.319 208.7296)" clip-path="url(#BO)"/><path d="M0 0l196.817 127.766 63.045-97.117L63.044-97.117z" transform="matrix(1.333333 0 0 -1.333333 13537.33 208.74613)" clip-path="url(#BP)"/></g><g class="D"><path d="M0 0c19.296 3.136 37.481-9.965 40.617-29.261s-9.966-37.481-29.262-40.617-37.481 9.965-40.616 29.261S-19.296-3.136 0 0" transform="matrix(1.333333 0 0 -1.333333 13770.686 109.50867)" clip-path="url(#BQ)" class="F"/><path d="M0 0a35.34 35.34 0 0 1 15.887 25.598C6.733 37.568-9.55 41.06-21.579 33.255S-37.04 9.139-29.838-4.093A35.3 35.3 0 0 1 0 0" transform="matrix(1.333333 0 0 -1.333333 13803.989 195.55173)" clip-path="url(#BR)" class="K"/><path d="M0 0c7.542 6.426 18.865 5.521 25.291-2.022s5.521-18.865-2.021-25.291-18.866-5.52-25.292 2.022S-7.542-6.426 0 0" transform="matrix(1.333333 0 0 -1.333333 13757.645 129.95413)" clip-path="url(#BS)" class="E"/></g><use href="#Dj" transform="matrix(1.333333 0 0 -1.333333 13590.315 239.86133)" clip-path="url(#BT)" class="E"/><use href="#Dj" transform="matrix(1.333333 0 0 -1.333333 13606.755 265.196)" clip-path="url(#BU)" class="E"/></g><g class="F"><path d="M0 0l68.98 44.344 2.551-3.967L2.551-3.968z" transform="matrix(1.333333 0 0 -1.333333 13618.682 288.4144)" clip-path="url(#BV)"/><use href="#Dk" transform="matrix(1.333333 0 0 -1.333333 13628.696 298.962)" clip-path="url(#BW)"/><use href="#Dk" transform="matrix(1.333333 0 0 -1.333333 13670.508 363.35253)" clip-path="url(#BX)"/><use href="#Dk" transform="matrix(1.333333 0 0 -1.333333 13678.045 374.98227)" clip-path="url(#BY)"/><use href="#Dk" transform="matrix(1.333333 0 0 -1.333333 13685.583 386.61213)" clip-path="url(#BZ)"/><use href="#Dk" transform="matrix(1.333333 0 0 -1.333333 13795.076 282.4828)" clip-path="url(#Ba)"/><use href="#Dk" transform="matrix(1.333333 0 0 -1.333333 13802.63 294.10187)" clip-path="url(#Bb)"/><use href="#Dk" transform="matrix(1.333333 0 0 -1.333333 13810.167 305.73173)" clip-path="url(#Bc)"/></g><path d="M0 0l166.263 107.952" transform="matrix(1.333333 0 0 -1.333333 13661.56 354.13747)" clip-path="url(#Bd)" class="D G H I J"/><g class="F"><use href="#Dk" transform="matrix(1.333333 0 0 -1.333333 13709.576 423.5464)" clip-path="url(#Be)"/><use href="#Dk" transform="matrix(1.333333 0 0 -1.333333 13717.103 435.15987)" clip-path="url(#Bf)"/><use href="#Dk" transform="matrix(1.333333 0 0 -1.333333 13724.656 446.75933)" clip-path="url(#Bg)"/><use href="#Dk" transform="matrix(1.333333 0 0 -1.333333 13834.144 342.67667)" clip-path="url(#Bh)"/><use href="#Dk" transform="matrix(1.333333 0 0 -1.333333 13841.687 354.27933)" clip-path="url(#Bi)"/><use href="#Dk" transform="matrix(1.333333 0 0 -1.333333 13849.205 365.9092)" clip-path="url(#Bj)"/></g><g class="H I J"><path d="M0 0l166.263 107.937" transform="matrix(1.333333 0 0 -1.333333 13700.619 414.30147)" clip-path="url(#Bk)" class="D G"/><path d="M0 0l163.104 105.88 25.695-39.582L25.695-39.582z" transform="matrix(1.333333 0 0 -1.333333 13738.681 470.68427)" clip-path="url(#Bl)" class="F"/><use href="#Dl" transform="matrix(1.333333 0 0 -1.333333 13502.583 184.42267)" clip-path="url(#Bm)" class="K"/></g><g opacity=".25" clip-path="url(#Bo)" class="F H I J"><use href="#Dl" transform="matrix(1.333333 0 0 -1.333333 13502.583 184.42267)" clip-path="url(#Bn)"/></g><path d="M0 0c-4.533-1.262-14.977-4.562-20.537-6.411l-10.269 9.404c2.494 1.29 8.024 3.696 14.303 6.395 5.822 2.181 11.861 3.73 18.014 4.621.51-.944.843-1.973.983-3.036.586-1.818 1.322-3.585 2.2-5.281A19.07 19.07 0 0 0 0 0m78.903 82.767c-.023.054-.066.097-.119.119-1.743.76-16.386.626-16.773-.238 0-.104.074-.238.298-.387a6.48 6.48 0 0 1 .983-.507c.417-.178.924-.372 1.49-.566l1.683-.566 2.487-.774 1.311-.388.864-.238L55.963 64.55a115 115 0 0 0-9.935-8.104l-.685.685a33.45 33.45 0 0 1-3.143 2.682v.784a32.14 32.14 0 0 0-3.914-2.142c-5.062-2.567-19.26-8.992-24.322-19.29-2.538-5.225-5.355-10.308-8.438-15.227v-.674H3.868c-4.953.425-14.39-2.861-21.328-6.279-5.924-3.269-11.63-6.92-17.08-10.929l-5.379-1.892c-1.955-.279-5.542-.733-6.041-1.335s-3.984 0-5.527-.381S-52.59.981-52.59.981l2.94-.279-19.388-6.733 15.596-12.352 21.151 7.834 1.132-.279c2.256-.692 4.693-.476 6.791.601a22.97 22.97 0 0 1 2.19.954c3.91.513 15.801 3.125 19.931 4.034C.855-9.434 9.704-16.49 11.218-19.542c.071-.161.13-.328.176-.498v-.118a.82.82 0 0 0 0-.381 21.87 21.87 0 0 0-2.719-4.797 39.61 39.61 0 0 1-6.218 1.98c-8.04 1.849-12.435-6.483-13.831-6.894s-3.102-1.643-1.47-2.817-.838-2.259-1.838-3.843a13.39 13.39 0 0 1-1.249-3.975c-5.306-.455-9.848-2.641-11.024-5.868-1.47-4.122 11.92-7.144 11.92-7.144s18.536-7.232 32.676-2.699S31.237-44.509 32.34-40.46s12.641 14.009 25.59 20.948S76.509-6.31 64.192 3.093c-8.085 6.176-15.199 9.139-21.063 9.374a22.42 22.42 0 0 0 .47 1.042l.294.645c.176.367.382.719.573 1.086l.294.528c.309.528.632 1.041.985 1.555a18.13 18.13 0 0 1 1.602 2.757 14.64 14.64 0 0 1 1.073 9.58 11.95 11.95 0 0 0-.411 2.845c.294 1.924 3.504 9.491 4.323 12.845l.03.383a7.42 7.42 0 0 1-.914 3.011c3.307 1.966 9.966 5.545 13.023 8.934S74.216 73.14 76.715 79.33c.103.249.191.499.279.733.089.221.162.455.236.661.058.205.117.396.176.572v-.174s.474.308.503.44c-.007.024.964.073.964.073v.536.105a1.35 1.35 0 0 1 0 .238v.119s.045.09.03.134" transform="matrix(1.333333 0 0 -1.333333 13991.17 531.59773)" clip-path="url(#Bp)" fill="#d9e6a9"/><g class="H"><g class="I J"><path d="M0 0a275.99 275.99 0 0 0 7.701-28.488l6.396-34.942s-10.884-.616-11.075-2.391 14.361-8.802 16.532-8.113 3.418 44.977 2.113 55.04-8.259 23.471-8.802 26.493l-1.731 8.904z" transform="matrix(1.333333 0 0 -1.333333 14071.656 327.34147)" clip-path="url(#Bq)" class="E"/><g class="D"><path d="M0 0c.543.161 1.027 2.934 1.467 7.335-4.269-3.14-7.335 0-7.335 0l.396 3.139s-10.884-.616-11.075-2.391S-2.171-.675 0 0" transform="matrix(1.333333 0 0 -1.333333 14097.729 425.9196)" clip-path="url(#Br)" class="K"/><path d="M0 0s-17.28 17.809-19.848 19.07-3.462-1.467-2.728-3.007S-4.269-8.772-1.291-11.809 0 0 0 0" transform="matrix(1.333333 0 0 -1.333333 14063.031 150.4288)" clip-path="url(#Bs)" class="E"/></g><path d="M0 0l-23.163-16.694L4.239-56.228l21.183 17.824z" transform="matrix(1.333333 0 0 -1.333333 14003.258 83.164933)" clip-path="url(#Bt)" class="F"/><path d="M0 0l-19.598-14.127 23.192-33.46 17.926 15.08z" transform="matrix(1.333333 0 0 -1.333333 14003.473 88.895733)" clip-path="url(#Bu)" class="K"/><g class="D"><g class="E"><path d="M0 0c-.752 1.852-1.675 3.63-2.758 5.31-1.907 2.934-3.124 4.504-6.484 4.313a36.7 36.7 0 0 0-7.452.543c-1.921.205-1.951-2.567-.939-3.521s6.602-.719 6.602-.719c-.573.749-.147-.469 3.55-5.559C-6.44-1.1-2.787-1.35-1.966-1.438" transform="matrix(1.333333 0 0 -1.333333 14039.325 129.2072)" clip-path="url(#Bv)"/><path d="M0 0a66.98 66.98 0 0 1-1.716-11.031c0-3.521 1.907-6.807-.47-8.303s-1.379-4.694-.22-6.132.558-19.642 9.785-19.774 18.102 4.621 19.979 9.696 6.528 19.525.675 26.332S5.398 9.095 0 0" transform="matrix(1.333333 0 0 -1.333333 14072.38 44.457333)" clip-path="url(#Bw)"/></g><g class="G"><path d="M0 0l1.452-2.67-1.76-.058" transform="matrix(1.333333 0 0 -1.333333 14072.849 66.9308)" clip-path="url(#Bx)"/><path d="M0 0s2.758 0 2.934-4.577" transform="matrix(1.333333 0 0 -1.333333 14072.458 61.2196)" clip-path="url(#By)"/></g></g><g class="E"><path d="M0 0a72.43 72.43 0 0 0 0-12.322 4.32 4.32 0 0 0-.777-1.849 74.32 74.32 0 0 0 14.669 7.819l1.467.558a155 155 0 0 0-1.115 18.762z" transform="matrix(1.333333 0 0 -1.333333 14091.998 101.13973)" clip-path="url(#Bz)"/><path d="M0 0s-.792-19.877.88-26.669S8.728-89.644 8.464-94.72l-.469-7.159-16.826-2.67c-1.555-.44-2.068-2.479 6.381-4.899s14.948-6.132 16.753-3.33 4.254 13.202 4.973 20.786c1.687 17.604 4.576 37.378 2.845 46.268s-6.234 19.95-5.618 22.884 10.151 35.206 10.151 35.206z" transform="matrix(1.333333 0 0 -1.333333 14039.521 335.2628)" clip-path="url(#CA)"/></g><g class="K"><path d="M0 0c.931 1.934 1.569 3.995 1.892 6.117-4.474-2.362-9.975.983-9.975.983l1.775 3.799-16.826-2.669c-1.555-.441-2.068-2.48 6.382-4.9S-1.804-2.802 0 0" transform="matrix(1.333333 0 0 -1.333333 14058.591 485.6336)" clip-path="url(#CB)" class="D"/><path d="M0 0a72.43 72.43 0 0 0 0-12.322c-.616-5.648-26.185-22.21-25.539-28.444s3.652-14.919 1.965-22.21-11.046-32.668-12.909-41.705-8.948-77.747-5.75-80.769 16.136-1.746 22.649 1.936S.381-165.911 1.57-159.001s2.523 23.045 3.388 26.918 7.599 13.202 6.851 30.483 5.486 38.14 6.953 51.592 0 31.686-2.332 38.977-2.215 23.999-2.215 23.999z" transform="matrix(1.333333 0 0 -1.333333 14091.998 101.13973)" clip-path="url(#CC)"/></g><path d="M0 0c1.203 6.909 2.523 23.046 3.389 26.918s7.598 13.203 6.85 30.483c-.425 9.477 1.276 20.039 3.14 29.882-4.885-4.636-17.604-15.432-31.173-16.694-9.814-.924-13.012 1.936-13.936 4.606-2.714-8.185-5.413-16.474-6.322-20.874-1.878-9.037-8.949-77.748-5.751-80.77s16.137-1.746 22.65 1.937S-1.188-6.909 0 0" transform="matrix(1.333333 0 0 -1.333333 14094.052 313.14147)" clip-path="url(#CD)" class="D F"/></g><g stroke="#fff" class="G S D"><path d="M0 0l-19.804-34.502" transform="matrix(1.333333 0 0 -1.333333 14090.355 286.4236)" clip-path="url(#CE)"/><path d="M0 0l-9.051-18.102" transform="matrix(1.333333 0 0 -1.333333 14078.287 315.84067)" clip-path="url(#CF)"/></g><path d="M0 0c-3.829 16.591-14.669 22.327-24.234 28.062-4.401 2.626-5.868 7.115-6.073 11.223l-.484-4.401c-.241 2.081-.241 4.183 0 6.264.161.968.367 2.009.601 3.139a25.77 25.77 0 0 1-.146-4.944l.983 9.183v-.102c1.467 8.229 2.127 19.187-6.499 30.673-11.515 15.344-34.546 9.931-34.546 9.931s-15.359.367-16.313-8.332 4.768-16.796 12.499-18.527c0 0 1.569-3.345 3.359-8.347-.812-.763-1.439-1.701-1.834-2.743 0 0 2.553-1.276 3.829-9.565S-80.344 17.911-79.126 7.775-67.01-2.494-67.655-8.171s-8.288-4.401-7.643-11.471c.455-5.032 9.125-11.384 14.67-15.99a116.37 116.37 0 0 1-.103-14.669 33.89 33.89 0 0 1-5.032-18.484c.382-9.447 9.11-12.806 17.398-10.591 2.279.622 4.498 1.447 6.631 2.465 7.804-3.14 26.786-.719 35.91 14.493 9.565 15.945.631 21.05 0 32.522S3.829-16.576 0 0" transform="matrix(1.333333 0 0 -1.333333 14177.524 133.7644)" clip-path="url(#CG)" class="D F I J"/><g stroke="#fff" class="G S D"><path d="M0 0a68.93 68.93 0 0 1 16.679-15.828c12.117-7.658 3.829-30.615-5.736-40.81s-7.657-19.775 3.184-24.865 29.969-10.841 19.07-29.339-12.117-33.153 3.828-37.627" transform="matrix(1.333333 0 0 -1.333333 14076.624 33.6216)" clip-path="url(#CH)"/><path d="M0 0s.88-1.467 2.494-3.594" transform="matrix(1.333333 0 0 -1.333333 14071.656 26.638933)" clip-path="url(#CI)"/><path d="M0 0c2.124-.507 4.363-.131 6.205 1.042" transform="matrix(1.333333 0 0 -1.333333 14144.162 228.66547)" clip-path="url(#CJ)"/><path d="M0 0c9.887-3.55 20.537-6.543 21.725-16.664C23.647-33.241 1.32-40.898 1.32-54.277c0-6.293 2.391-10.752 5.516-13.319" transform="matrix(1.333333 0 0 -1.333333 14128.554 135.3488)" clip-path="url(#CK)"/><path d="M0 0s15.3-5.736 19.07-15.3S-.69-38.903 6.953-51.02c2.362-3.726 6.587-6.058 11.384-7.995" transform="matrix(1.333333 0 0 -1.333333 14098.863 54.725867)" clip-path="url(#CL)"/><path d="M0 0s13.202-13.481 7.173-28.517-8.801-21.828-4.4-25.789 27.739-5.662 33.431-23.706" transform="matrix(1.333333 0 0 -1.333333 14127.302 36.770533)" clip-path="url(#CM)"/></g><g class="I J"><path d="M0 0s-13.349 9.858-19.657 20.772-11.618 20.185-11.486 21.373.777 7.129-1.071 9.433-8.156 5.104-8.978 5.794-2.537-1.232-.63-2.934 3.799-3.726 3.799-3.726l-12.264 3.139c-.622-1.05-.528-2.377.235-3.33 1.35-1.349 5.208-1.76 5.34-3.286s4.034-4.4 5.692-5.721c.705-.7 1.579-1.205 2.537-1.467 0 0 7.027-23.603 11.971-33.46s12.469-20.538 17.706-22.004S4.856-7.672 4.856-7.672z" transform="matrix(1.333333 0 0 -1.333333 14055.794 205.70307)" clip-path="url(#CN)" class="E"/><path d="M0 0s-7.144-4.929-9.374-11.589-13.613-22.84-15.256-26.874c-.746-2.011-1.763-3.911-3.022-5.648 0 0 1.467-8.801 7.54-13.437s7.951-4.181 7.951-4.181S9.843-25.965 13.393-17.647 9.462 4.078 0 0" transform="matrix(1.333333 0 0 -1.333333 14086.717 142.6052)" clip-path="url(#CO)" class="D K"/></g></g><g clip-path="url(#CR)" class="B"><path d="M-31 479.437L1281.2-832.762H-31z" transform="matrix(1.333333 0 0 -1.333333 15152 822.66667)" clip-path="url(#CQ)" fill="url(#CP)" class="C"/></g><g clip-path="url(#CU)" class="B"><path d="M995.821 854.572H-31V640.226L1441.989-832.762H2500v183.154z" transform="matrix(1.333333 0 0 -1.333333 15152 822.66667)" clip-path="url(#CT)" fill="url(#CS)" class="C"/></g><g clip-path="url(#CX)" class="B"><path d="M1011.264-832.762h672.99L-3.08 854.572H-31V209.501z" transform="matrix(1.333333 0 0 -1.333333 15152 822.66667)" clip-path="url(#CW)" fill="url(#CV)" class="C"/></g><g clip-path="url(#Ca)" class="B"><path d="M-31-457.628l1312.2 1312.2H-31z" transform="matrix(1.333333 0 0 -1.333333 15152 822.66667)" clip-path="url(#CZ)" fill="url(#CY)" class="C"/></g><g clip-path="url(#Cd)" class="B"><path d="M995.821-832.762H-31v214.345L1441.989 854.572H2500V671.417z" transform="matrix(1.333333 0 0 -1.333333 15152 822.66667)" clip-path="url(#Cc)" fill="url(#Cb)" class="C"/></g><g clip-path="url(#Cg)" class="B"><path d="M1011.264 854.572h672.99L-3.08-832.762H-31v645.07z" transform="matrix(1.333333 0 0 -1.333333 15152 822.66667)" clip-path="url(#Cf)" fill="url(#Ce)" class="C"/></g><g clip-path="url(#Cj)" class="B"><path d="M-31 230.219v624.353h634.561z" transform="matrix(1.333333 0 0 -1.333333 15152 822.66667)" clip-path="url(#Ci)" fill="url(#Ch)" class="C"/></g><path d="M0 0v286.329l-97.541-103.393-1052.489-.001c-27.531 0-49.93-22.398-49.93-49.93l.001 15.231.369-32.94c3.219-27.868 26.789-48.856 54.921-48.856l64.749.001 1.21-32.391c.714-19.094 16.24-34.05 35.346-34.05zm5.349 325.382c3.163 0 6.362-.594 9.442-1.818 9.745-3.871 16.042-13.147 16.042-23.633V-30.833h-1074.197c-35.762 0-64.822 27.994-66.157 63.731l-.101 2.71-35.047-.001c-43.939 0-80.734 32.89-85.591 76.505-.376 3.382-.495 26.115-.524 33.682h-.01l-.001-12.789c0 44.533 36.23 80.764 80.763 80.764h1039.188l97.748 103.613c4.921 5.216 11.597 8 18.443 8z" transform="matrix(1.333333 0 0 -1.333333 16393.556 874.65227)" clip-path="url(#Ck)" stroke-width="5.071" class="G L M"/><g clip-path="url(#Cn)" class="B"><path d="M995.821 1394.572H-31v-214.346L1441.989-292.762H2500v183.154z" transform="matrix(1.333333 0 0 -1.333333 18464 600)" clip-path="url(#Cm)" fill="url(#Cl)" class="C"/></g><g clip-path="url(#Cq)" class="B"><path d="M1011.264-292.762h672.99L-3.08 1394.572H-31V749.501z" transform="matrix(1.333333 0 0 -1.333333 18464 600)" clip-path="url(#Cp)" fill="url(#Co)" class="C"/></g><g clip-path="url(#Ct)" class="B"><path d="M995.821-292.762H-31v214.345l1472.989 1472.989H2500v-183.155z" transform="matrix(1.333333 0 0 -1.333333 18464 600)" clip-path="url(#Cs)" fill="url(#Cr)" class="C"/></g><g clip-path="url(#Cw)" class="B"><path d="M1011.264 1394.572h672.99L-3.08-292.762H-31v645.07z" transform="matrix(1.333333 0 0 -1.333333 18464 600)" clip-path="url(#Cv)" fill="url(#Cu)" class="C"/></g><path d="M0 0l235.533 141.9L516.84 1435.952c18.261 84.005 101.462 137.492 185.467 119.231l871.204-189.387v-.015l63.321-14.801c80.282-27.047 127.235-109.943 109.218-192.827l-14.373-66.111 5.07-1.302c66.866-17.174 107.756-83.47 93.092-150.931L1534.174-420.283 14.904-90.018c-19.779 4.3-34.695 19.982-38.002 39.951-1.045 6.312-.854 12.59.443 18.557C-19.848-18.596-11.859-7.144 0 0" transform="matrix(1.333333 0 0 -1.333333 18894.403 2378.7413)" clip-path="url(#Cx)" fill="#2d5f00"/><path d="M0 0l-.001 1307.678-145.011-153.712-1564.707-.001c-40.93 0-74.229-33.299-74.229-74.23v22.644l.549-930.972c4.786-41.43 39.827-72.632 81.649-72.632l96.261.001 1.8-48.155C-1602.628 22.235-1579.547 0-1551.141 0zm7.952 1365.737c4.703 0 9.459-.884 14.038-2.702 14.487-5.756 23.848-19.546 23.848-35.135l.001-1373.739h-1596.98c-53.167 0-96.369 41.618-98.355 94.748l-.15 4.028-52.104-.001c-65.321 0-120.024 48.897-127.245 113.738-.56 5.027-.736 920.824-.779 932.074h-.012l-.001-19.013c0 66.206 53.863 120.069 120.068 120.069l1544.933.001 145.319 154.038c7.317 7.755 17.242 11.894 27.419 11.894z" transform="matrix(1.333333 0 0 -1.333333 23984.215 2223.3799)" clip-path="url(#Cy)" stroke-width="7.539" class="G L M"/><g clip-path="url(#DB)" class="B"><path d="M365.527 1618.405H-647.5v-211.466L805.701-46.262H1849.5v180.694z" transform="matrix(1.333333 0 0 -1.333333 22262.667 2000)" clip-path="url(#DA)" fill="url(#Cz)" class="C"/></g><g clip-path="url(#DE)" class="B"><path d="M365.527-46.262H-647.5v211.466L805.701 1618.405H1849.5v-180.694z" transform="matrix(1.333333 0 0 -1.333333 22262.667 2000)" clip-path="url(#DD)" fill="url(#DC)" class="C"/></g><g class="G"><path d="M0 0a27.81 27.81 0 0 1 27.882 26.86l.955 25.551 51.076-.001c22.191 0 40.784 16.556 43.324 38.539.164 2.936.291 22.677.291 25.985v884.392c0 21.718-17.668 39.386-39.386 39.386l-1634.849.001-76.943 81.559L-1627.651 0zm-1617.322 1146.768l77.107-81.733 1624.357-.001c35.129 0 63.709-28.579 63.709-63.708l-.001-886.319h-.006l-.414-26.569c-3.831-34.405-32.857-60.35-67.517-60.35l-27.646.001-.08-2.138C51.134-2.239 28.21-24.322 0-24.322h-1651.973v1157.325c0 8.271 4.968 15.588 12.654 18.642a20.16 20.16 0 0 0 7.449 1.434c5.4 0 10.666-2.196 14.548-6.311z" transform="matrix(1.333333 0 0 -1.333333 24753.796 2114.6951)" clip-path="url(#DF)" stroke-width="4" class="L M"/><path d="M2173.5-64.5h-2531v1590h2531z" transform="matrix(1.333333 0 0 -1.333333 24682.667 2000)" clip-path="url(#DG)" stroke="#263238" stroke-width="2.716" class="H"/></g><g clip-path="url(#DJ)" class="B"><path d="M585.321 1582.072H-441.5v-214.346L1031.489-105.262H2089.5V77.892z" transform="matrix(1.333333 0 0 -1.333333 27102.667 2000)" clip-path="url(#DI)" fill="url(#DH)" class="C"/></g><g clip-path="url(#DM)" class="B"><path d="M-208.042 1582.072L1479.293-105.262h403.22L195.179 1582.072z" transform="matrix(1.333333 0 0 -1.333333 27102.667 2000)" clip-path="url(#DL)" fill="url(#DK)" class="C"/></g><g clip-path="url(#DP)" class="B"><path d="M-59.427 1582.072L1627.907-105.262h403.221L343.794 1582.072z" transform="matrix(1.333333 0 0 -1.333333 27102.667 2000)" clip-path="url(#DO)" fill="url(#DN)" class="C"/></g><g clip-path="url(#DS)" class="B"><path d="M585.321-105.262H-441.5v214.345l1472.989 1472.989H2089.5v-183.155z" transform="matrix(1.333333 0 0 -1.333333 27102.667 2000)" clip-path="url(#DR)" fill="url(#DQ)" class="C"/></g><g clip-path="url(#DV)" class="B"><path d="M-208.042-105.262l1687.335 1687.334h403.22L195.179-105.262z" transform="matrix(1.333333 0 0 -1.333333 27102.667 2000)" clip-path="url(#DU)" fill="url(#DT)" class="C"/></g><g clip-path="url(#DY)" class="B"><path d="M-174.578-105.262l1687.335 1687.334h403.22L228.643-105.262z" transform="matrix(1.333333 0 0 -1.333333 27102.667 2000)" clip-path="url(#DX)" fill="url(#DW)" class="C"/></g><g clip-path="url(#Db)" class="B"><path d="M983.821 1662.572H-43v-214.346L1429.989-24.762H2488v183.154z" transform="matrix(1.333333 0 0 -1.333333 29522.667 2000)" clip-path="url(#Da)" fill="url(#DZ)" class="C"/></g><g clip-path="url(#De)" class="B"><path d="M983.821-24.762H-43v214.345l1472.989 1472.989H2488v-183.155z" transform="matrix(1.333333 0 0 -1.333333 29522.667 2000)" clip-path="url(#Dd)" fill="url(#Dc)" class="C"/></g></g></svg>